<svg width="24" height="24" version="1.1" xmlns="http://www.w3.org/2000/svg" desc="Created with imagetracer.js version 1.2.6" ><path fill="rgb(0,0,0)" stroke="rgb(0,0,0)" stroke-width="1" opacity="0" d="M 0 0 L 24 0 L 24 24 L 0 24 L 0 0 Z M 11 4 L 4 11 L 4 14 L 11 20 L 13 20 Q 14 15 9 14 L 20 13 L 20 11 L 10 11 L 13 7 Q 14 3 11 4 Z " /><path fill="rgb(21,21,21)" stroke="rgb(21,21,21)" stroke-width="1" opacity="0.9411764705882353" d="M 11.5 4 Q 13.8 3.3 13 5.5 L 8.5 11 L 19.5 11 L 20 13 L 8 13.5 L 13 20 L 4 12.5 L 11.5 4 Z " /><path fill="rgb(20,20,20)" stroke="rgb(20,20,20)" stroke-width="1" opacity="0.12549019607843137" d="M 10.5 4 L 4.5 11 L 10.5 4 Z " /><path fill="rgb(20,20,20)" stroke="rgb(20,20,20)" stroke-width="1" opacity="0.12549019607843137" d="M 12.5 6 L 8.5 11 L 12.5 6 Z " /><path fill="rgb(20,20,20)" stroke="rgb(20,20,20)" stroke-width="1" opacity="0.12549019607843137" d="M 4.5 13 L 10.5 20 L 4.5 13 Z " /><path fill="rgb(20,20,20)" stroke="rgb(20,20,20)" stroke-width="1" opacity="0.12549019607843137" d="M 8.5 13 L 12.5 18 L 8.5 13 Z " /></svg>