<svg width="85" height="68" viewBox="0 0 85 68" fill="none" xmlns="http://www.w3.org/2000/svg">
<path d="M48.8802 60.614C48.8802 60.614 47.2158 63.7106 47.5177 64.3531C47.8196 64.9956 51.2258 66.2188 51.1097 66.5594C50.9936 66.9 43.5851 66.7142 43.3219 66.3349C43.0587 65.9556 43.167 65.8007 43.1283 64.8872C43.0896 63.9738 45.8456 59.7393 45.8456 59.7393" fill="#231F20"/>
<path d="M48.5235 67.1097C46.294 67.1097 43.3058 66.9858 43.0039 66.5523C42.7925 66.2505 42.7014 65.8805 42.7485 65.515C42.7485 65.3602 42.7485 65.1666 42.7485 64.9034C42.7098 63.9435 44.8618 60.5451 45.5276 59.5309C45.5544 59.4875 45.5896 59.4499 45.6313 59.4204C45.6729 59.3909 45.7201 59.3701 45.77 59.3592C45.8199 59.3484 45.8714 59.3477 45.9215 59.3573C45.9717 59.3668 46.0194 59.3864 46.0618 59.4148C46.1479 59.4704 46.2085 59.5578 46.2302 59.6579C46.252 59.758 46.2332 59.8627 46.1779 59.949C44.8851 61.9385 43.5071 64.3848 43.5226 64.8725V65.5227C43.5226 65.8401 43.5226 65.9253 43.5923 66.0414C45.7561 66.3149 47.9387 66.4107 50.1182 66.3278L49.4989 66.0259C48.1829 65.3911 47.37 64.9731 47.1765 64.4777C46.8359 63.7035 48.0281 61.3811 48.5545 60.398C48.5789 60.3532 48.6118 60.3138 48.6515 60.2818C48.6912 60.2498 48.7367 60.2259 48.7856 60.2115C48.8345 60.1972 48.8857 60.1925 48.9364 60.198C48.987 60.2034 49.0361 60.2187 49.0809 60.2431C49.1256 60.2675 49.1651 60.3005 49.1971 60.3402C49.2291 60.3798 49.2529 60.4254 49.2673 60.4743C49.2817 60.5232 49.2863 60.5744 49.2809 60.6251C49.2755 60.6757 49.2601 60.7248 49.2357 60.7696C48.4074 62.3178 47.7881 63.8661 47.8887 64.168C48.488 64.6308 49.1467 65.011 49.8473 65.2982C51.1246 65.9175 51.651 66.173 51.4884 66.653C51.3955 66.9317 51.0781 66.9781 50.8923 67.0091C50.7066 67.04 49.6615 67.1097 48.5235 67.1097Z" fill="#231F20"/>
<path d="M45.3719 31.8246L32.0954 28.0391L20.7079 45.0081C20.7079 45.0081 4.76074 55.2499 4.76074 55.7221C4.76074 56.3801 7.4857 60.8856 7.4857 60.8856C7.4857 60.8856 17.5494 56.8911 25.794 53.1443C32.3586 50.1793 39.0781 40.371 39.0781 40.371L51.7198 46.1848L43.9784 60.6147L49.916 61.1333C49.916 61.1333 58.4315 49.5213 61.2571 43.1657C64.0827 36.81 45.3719 31.8246 45.3719 31.8246Z" fill="#231F20"/>
<path d="M49.8779 61.5198L43.9326 61.0011C43.8695 60.9955 43.8087 60.9741 43.756 60.9389C43.7033 60.9038 43.6602 60.8559 43.6307 60.7998C43.6002 60.7441 43.5842 60.6815 43.5842 60.6179C43.5842 60.5543 43.6002 60.4918 43.6307 60.436L51.2482 46.3777L39.2413 40.8968C38.0879 42.5303 32.0419 50.8058 25.9804 53.5462C17.8597 57.2079 7.75727 61.2101 7.65664 61.2488C7.57247 61.2842 7.47838 61.288 7.39164 61.2595C7.3049 61.2311 7.23132 61.1723 7.18441 61.094C6.34835 59.7083 4.40527 56.4492 4.40527 55.7293C4.40527 55.4583 4.40527 55.048 20.4608 44.7365L31.8019 27.8372C31.8465 27.7685 31.9118 27.7158 31.9883 27.6866C32.0648 27.6574 32.1486 27.6532 32.2277 27.6746L45.5118 31.4524C46.1079 31.615 59.1056 35.1218 61.5287 40.1846C61.779 40.6684 61.9161 41.2027 61.9295 41.7472C61.9429 42.2917 61.8323 42.8321 61.6061 43.3276C58.796 49.691 50.3037 61.2488 50.2186 61.365C50.18 61.418 50.1284 61.4602 50.0687 61.4873C50.009 61.5144 49.9433 61.5256 49.8779 61.5198ZM44.5596 60.2734L49.6922 60.7224C50.7682 59.2516 58.2773 48.8627 60.8707 43.0102C61.0506 42.6158 61.1379 42.1853 61.1258 41.7519C61.1137 41.3185 61.0026 40.8936 60.801 40.5098C58.525 35.7566 45.4112 32.2265 45.3183 32.1956L32.3051 28.4875L21.0724 45.2243C21.0423 45.266 21.0057 45.3025 20.964 45.3326C15.0961 49.1027 6.25545 54.8622 5.21811 55.8299C5.93973 57.4076 6.76469 58.936 7.6876 60.405C9.43714 59.7083 18.3629 56.1318 25.6785 52.8263C32.0728 49.9465 38.7381 40.2853 38.8388 40.1846C38.8905 40.1098 38.967 40.0555 39.0548 40.0315C39.1426 40.0074 39.236 40.015 39.3187 40.053L51.9913 45.8358C52.0394 45.8574 52.0826 45.8884 52.1185 45.9269C52.1544 45.9655 52.1822 46.0108 52.2003 46.0603C52.2217 46.1092 52.2327 46.1619 52.2327 46.2151C52.2327 46.2684 52.2217 46.3211 52.2003 46.37L44.5596 60.2734Z" fill="#231F20"/>
<path d="M77.0887 17.8979C77.0887 17.8979 82.616 18.045 82.7166 17.8979C82.8173 17.7508 83.9398 9.38239 83.065 9.72301C82.1902 10.0636 80.3942 14.8555 80.3942 14.8555L76.4307 14.4839" fill="white"/>
<path d="M81.0524 18.3543C80.1854 18.3543 78.9235 18.3543 77.0734 18.2846C77.0229 18.2836 76.9731 18.2726 76.9269 18.2521C76.8808 18.2316 76.8392 18.2021 76.8046 18.1653C76.7699 18.1286 76.743 18.0853 76.7254 18.038C76.7077 17.9906 76.6997 17.9403 76.7018 17.8898C76.7076 17.7885 76.7515 17.693 76.8248 17.6227C76.898 17.5524 76.9951 17.5123 77.0966 17.5105C79.2487 17.5724 81.664 17.6034 82.3994 17.5569C82.6007 16.4112 83.1735 11.658 82.9878 10.3033C82.0773 11.7831 81.3273 13.3557 80.7505 14.9946C80.7205 15.0731 80.6658 15.1398 80.5945 15.1845C80.5233 15.2292 80.4395 15.2495 80.3557 15.2423L76.3999 14.8707C76.2979 14.8609 76.2037 14.8117 76.1372 14.7337C76.0708 14.6557 76.0373 14.5549 76.0438 14.4527C76.0572 14.3508 76.1084 14.2576 76.1873 14.1917C76.2661 14.1257 76.3669 14.0918 76.4695 14.0966L80.1389 14.4449C80.6731 13.0592 82.0355 9.73818 82.9181 9.36659C83.0225 9.32299 83.1385 9.31529 83.2478 9.34472C83.3571 9.37414 83.4535 9.43901 83.5219 9.52916C84.2186 10.4117 83.2587 17.8202 83.0342 18.1298C82.9336 18.2614 82.8639 18.3543 81.0524 18.3543Z" fill="#231F20"/>
<path d="M48.1515 10.8682C45.682 9.77672 43.3364 12.1998 41.9584 13.9648C38.3277 18.4857 35.4092 23.6957 32.2275 28.565C32.2275 28.565 39.0786 40.4634 48.5695 34.4794L59.0668 18.5709H76.0358C76.0358 18.5709 76.09 17.3168 76.0358 14.1738C76.0358 14.1119 49.0108 11.2398 48.1515 10.8682Z" fill="white"/>
<path d="M43.205 36.4922C42.4561 36.4938 41.7099 36.4028 40.9833 36.2213C35.4869 34.8588 32.0343 28.9599 31.8872 28.7044C31.8511 28.6435 31.832 28.574 31.832 28.5031C31.832 28.4323 31.8511 28.3628 31.8872 28.3019C32.8239 26.8697 33.7529 25.3834 34.6508 23.9435C36.77 20.3832 39.0964 16.9505 41.6181 13.663C42.5161 12.5482 45.2255 9.15751 48.2601 10.4968C48.9182 10.7213 57.6039 11.7354 74.0698 13.5236C76.3922 13.7714 76.3922 13.7713 76.3922 14.0965C76.4386 17.193 76.3922 18.4781 76.3922 18.5323C76.3882 18.6322 76.3457 18.7267 76.2735 18.796C76.2013 18.8653 76.1052 18.9039 76.0051 18.9039H59.2761L48.8872 34.642C48.8606 34.6893 48.82 34.7271 48.7711 34.7504C47.1212 35.8529 45.1891 36.4576 43.205 36.4922ZM32.6846 28.5186C33.3348 29.556 36.5552 34.3246 41.2 35.4858C42.4134 35.7687 43.6723 35.7964 44.897 35.5672C46.1217 35.338 47.2854 34.8568 48.3143 34.1543L58.7652 18.3233C58.8011 18.2697 58.8494 18.2256 58.906 18.1946C58.9626 18.1636 59.0258 18.1467 59.0903 18.1452H75.6877C75.6877 17.6033 75.6877 16.4344 75.6877 14.4836L74.0543 14.3055C56.5898 12.4089 48.562 11.4644 48.0279 11.209C46.348 10.4348 44.4746 11.4257 42.2916 14.1507C39.7737 17.414 37.4474 20.8208 35.3244 24.3538C34.4651 25.7317 33.5748 27.1252 32.6846 28.5186Z" fill="#231F20"/>
<path d="M50.7294 10.6982C47.8032 10.017 48.887 4.9309 49.6611 2.87171C49.8132 2.41391 50.0495 1.98858 50.3578 1.61761C50.6936 1.29743 51.0937 1.05243 51.5315 0.898924C51.9693 0.745421 52.4348 0.686936 52.897 0.727356C53.8167 0.813305 54.7297 0.96072 55.6297 1.16861C57.6855 1.51569 59.796 1.33183 61.7608 0.634457C62.4266 0.394475 63.193 0.115785 63.7891 0.48737C63.9707 0.621124 64.121 0.792972 64.2293 0.990877C64.3376 1.18878 64.4014 1.40797 64.4161 1.63309C64.4506 2.16693 64.3486 2.70076 64.1197 3.18427C63.8908 3.66778 63.5426 4.08504 63.1078 4.39675C62.2106 4.96543 61.1808 5.29091 60.1197 5.3412C60.259 6.16952 60.3984 6.43273 59.9029 7.11397C59.41 7.72678 58.8156 8.25046 58.1456 8.66224C57.427 9.07251 56.6792 9.42957 55.9084 9.73054C54.2904 10.4427 52.7112 11.0698 50.8765 10.7292L50.7294 10.6982Z" fill="white"/>
<path d="M51.9294 11.2087C51.553 11.2088 51.1774 11.1751 50.8069 11.1081H50.6444C50.2769 11.0306 49.9316 10.8714 49.6341 10.6423C49.3365 10.4131 49.0945 10.1199 48.9258 9.78431C47.873 7.83349 48.709 4.36536 49.2974 2.8171C49.4668 2.31098 49.7293 1.841 50.0715 1.43139C50.4456 1.0721 50.8914 0.795998 51.3797 0.621219C51.868 0.44644 52.3878 0.376938 52.9048 0.417278C53.5596 0.456732 54.2097 0.552566 54.8479 0.70371L55.6917 0.866278C57.6829 1.19959 59.7261 1.02111 61.6294 0.347609C62.4035 0.0844034 63.2473 -0.225256 63.9518 0.239225C64.1788 0.403912 64.3662 0.617297 64.5001 0.863756C64.6341 1.11022 64.7112 1.38351 64.7259 1.66364C64.7672 2.26101 64.6552 2.85903 64.4004 3.40096C64.1457 3.94289 63.7568 4.41076 63.2705 4.76018C62.4461 5.31619 61.4908 5.6471 60.4991 5.7201C60.5817 6.00611 60.5931 6.30796 60.5324 6.59938C60.4717 6.89081 60.3407 7.16299 60.1508 7.39223C59.6254 8.04227 58.9947 8.59962 58.2851 9.04114C57.7103 9.38157 57.1098 9.67664 56.4891 9.92365L55.9937 10.1404C54.7268 10.7721 53.3432 11.1358 51.9294 11.2087ZM52.7036 1.14497C52.3194 1.12262 51.9348 1.17984 51.5738 1.31305C51.2128 1.44626 50.8832 1.65259 50.6057 1.9191C50.3286 2.25257 50.1183 2.63631 49.9864 3.04934C49.3516 4.74469 48.7168 7.83349 49.5683 9.42046C49.6861 9.65745 49.8559 9.86479 50.065 10.027C50.2741 10.1892 50.5171 10.302 50.776 10.3572H50.8998C52.5875 10.6746 53.9964 10.1327 55.7072 9.3895L56.2104 9.17274C56.793 8.9452 57.3551 8.66808 57.8903 8.34442C58.5216 7.9607 59.082 7.47099 59.5469 6.89679C59.8721 6.44005 59.8488 6.3007 59.7482 5.7201L59.694 5.41819C59.6781 5.3148 59.7031 5.2093 59.7637 5.12402C59.7943 5.0837 59.8327 5.0499 59.8765 5.02464C59.9204 4.99938 59.9689 4.98316 60.0191 4.97693H60.1895C61.1277 4.92923 62.0373 4.63846 62.8293 4.13313C63.2114 3.86397 63.518 3.50129 63.72 3.07978C63.9219 2.65827 64.0124 2.19201 63.9827 1.72557C63.9724 1.55775 63.9271 1.39395 63.8498 1.24465C63.7724 1.09535 63.6648 0.963838 63.5337 0.858535C63.1079 0.595329 62.4577 0.858536 61.8771 1.02885C59.8628 1.74447 57.699 1.93366 55.5911 1.57848C55.2969 1.53203 55.0105 1.4701 54.7163 1.41591C54.1221 1.27012 53.5157 1.17943 52.9048 1.14497H52.7036Z" fill="#231F20"/>
<path d="M58.5939 9.24219C58.5939 9.24219 58.8029 11.6807 58.3539 11.9207C57.9049 12.1607 57.2236 11.464 57.2236 11.464" fill="white"/>
<path d="M58.1458 12.3548C57.6873 12.2973 57.2644 12.0776 56.9537 11.7355C56.8907 11.661 56.8583 11.5655 56.8627 11.4681C56.8671 11.3707 56.9082 11.2785 56.9776 11.2101C57.0471 11.1416 57.1398 11.1019 57.2372 11.0988C57.3347 11.0958 57.4297 11.1296 57.5033 11.1936C57.751 11.4413 58.0917 11.6193 58.1768 11.5806C58.2775 10.8098 58.2775 10.0291 58.1768 9.25823C58.1703 9.15596 58.2038 9.05517 58.2703 8.97716C58.3367 8.89916 58.4309 8.85004 58.5329 8.8402C58.5838 8.83597 58.635 8.84184 58.6836 8.85747C58.7321 8.8731 58.7772 8.89819 58.816 8.93129C58.8549 8.96438 58.8868 9.00484 58.91 9.05032C58.9331 9.0958 58.947 9.14541 58.9509 9.1963C59.1058 10.9846 58.9509 12.0064 58.5019 12.2464C58.3938 12.3109 58.2716 12.3481 58.1458 12.3548Z" fill="#231F20"/>
<path d="M60.3824 5.10155C60.8004 6.12341 59.1283 8.97222 58.6561 9.74636C57.9955 10.9385 57.3091 12.11 56.5969 13.2609C56.1479 13.9886 54.1816 12.9435 53.9648 12.4868L52.641 15.6375C51.7079 15.2839 50.9165 14.634 50.3883 13.7873C49.2116 12.2004 49.3974 11.821 49.3974 11.821L51.4024 8.45355C51.875 8.65679 52.3944 8.72602 52.9038 8.65364C53.4131 8.58127 53.8927 8.3701 54.29 8.04326C55.4622 7.07332 56.435 5.88497 57.1543 4.54417C57.1543 4.54417 59.9721 4.09518 60.3824 5.10155Z" fill="white"/>
<path d="M52.641 16.1014H52.5558C51.5294 15.7365 50.6564 15.0354 50.0786 14.1118C49.2038 12.9274 48.8555 12.1301 49.049 11.743L51.0772 8.34454C51.1289 8.25873 51.2117 8.19626 51.3085 8.17028C51.4052 8.14429 51.5082 8.15681 51.5959 8.2052C52.0047 8.37358 52.4519 8.42654 52.8887 8.35828C53.3255 8.29003 53.7352 8.10319 54.0731 7.81813C55.194 6.88473 56.1245 5.74401 56.8136 4.45839C56.8401 4.4062 56.8784 4.36087 56.9254 4.32595C56.9724 4.29103 57.0269 4.26747 57.0845 4.25711C57.6032 4.15647 60.2352 3.73844 60.7384 4.96931C61.141 5.95246 60.1965 7.85684 59.1205 9.76895L58.9966 9.99345C58.3386 11.1701 57.6419 12.3546 56.9297 13.5158C56.8291 13.6697 56.6871 13.7921 56.52 13.8688C56.3529 13.9455 56.1675 13.9734 55.9852 13.9493C55.3064 13.8818 54.6574 13.6361 54.1041 13.2371L52.9971 15.8769C52.9657 15.9447 52.9154 16.0019 52.8522 16.0418C52.789 16.0816 52.7157 16.1023 52.641 16.1014ZM49.7767 12.0139C49.9676 12.6139 50.2813 13.1675 50.6979 13.6396C51.1503 14.2812 51.7435 14.8108 52.432 15.1879L53.6087 12.3933C53.6353 12.3256 53.6808 12.2669 53.7398 12.2244C53.7989 12.1818 53.8689 12.1572 53.9415 12.1533C54.0158 12.1495 54.0897 12.1671 54.1542 12.2042C54.2188 12.2413 54.2712 12.2962 54.3054 12.3623C54.7921 12.794 55.4006 13.0644 56.0472 13.1364C56.1168 13.1364 56.233 13.1364 56.2717 13.0668C56.9761 11.921 57.6729 10.7444 58.3154 9.57542L58.447 9.35092C59.7011 7.12141 60.2352 5.73571 59.9953 5.22478C59.7553 4.71385 58.447 4.78352 57.3709 4.94609C56.6462 6.28098 55.6649 7.45958 54.4834 8.41422C54.0717 8.73249 53.5913 8.95005 53.0805 9.04952C52.5697 9.14899 52.0428 9.1276 51.5417 8.98707L49.7767 12.0139Z" fill="#231F20"/>
<path d="M57.053 12.4165C56.6899 12.3027 56.3791 12.0634 56.1763 11.7414C55.9735 11.4195 55.8918 11.0358 55.946 10.6592" fill="white"/>
<path d="M57.0537 12.7808H56.9608C56.5092 12.6435 56.121 12.3501 55.8658 11.9531C55.6105 11.556 55.5048 11.0811 55.5674 10.6132C55.5756 10.5105 55.6243 10.4154 55.7027 10.3486C55.7811 10.2818 55.8828 10.2489 55.9854 10.2571C56.0881 10.2653 56.1833 10.314 56.2501 10.3924C56.3168 10.4708 56.3498 10.5725 56.3415 10.6751C56.2904 10.9621 56.3455 11.2578 56.4966 11.5071C56.6476 11.7564 56.8841 11.9422 57.1621 12.0299C57.2648 12.0432 57.3579 12.0968 57.4211 12.1788C57.4842 12.2608 57.5122 12.3646 57.4989 12.4673C57.4855 12.5699 57.432 12.6631 57.3499 12.7262C57.2679 12.7894 57.1641 12.8173 57.0615 12.804L57.0537 12.7808Z" fill="#231F20"/>
<path d="M55.9 8.76259C56.0252 8.44551 56.0626 8.10053 56.0084 7.76396C56.0029 7.50084 55.9585 7.23998 55.8768 6.98983C55.8315 6.86667 55.7604 6.75461 55.6682 6.66115C55.5761 6.5677 55.4651 6.495 55.3426 6.44793C55.2285 6.41876 55.1095 6.41402 54.9934 6.43403C54.8774 6.45404 54.7669 6.49835 54.6691 6.56405C54.475 6.69633 54.3135 6.87105 54.1969 7.07498C53.9338 7.51152 53.7903 8.00963 53.7808 8.51922C53.7713 9.02882 53.8961 9.53193 54.1427 9.97799V9.86961" fill="white"/>
<path d="M54.0808 10.3186C54.0246 10.3213 53.9686 10.3083 53.9194 10.2809C53.8701 10.2536 53.8295 10.213 53.8021 10.1637C53.5202 9.65588 53.3781 9.0823 53.3904 8.50156C53.4026 7.92082 53.5688 7.35373 53.8718 6.85819C54.0226 6.60868 54.2228 6.39265 54.4602 6.2234C54.6054 6.12994 54.7686 6.06788 54.9392 6.04122C55.1099 6.01455 55.2842 6.02387 55.4511 6.06858C55.6297 6.13169 55.7919 6.23396 55.9259 6.36791C56.0598 6.50186 56.1621 6.6641 56.2252 6.84271C56.3179 7.14364 56.3649 7.45679 56.3645 7.77167C56.4276 8.18077 56.374 8.59937 56.2097 8.97932C56.1605 9.06968 56.0779 9.13724 55.9795 9.1676C55.8812 9.19797 55.7749 9.18874 55.6833 9.14189C55.6352 9.11115 55.5943 9.07055 55.5631 9.02277C55.5319 8.975 55.5113 8.92115 55.5025 8.86479C55.4937 8.80843 55.497 8.75084 55.5121 8.69585C55.5273 8.64086 55.554 8.58971 55.5904 8.54581C55.6826 8.29868 55.7067 8.0313 55.6601 7.77167C55.6581 7.54806 55.6215 7.32609 55.5517 7.11366C55.5307 7.04273 55.494 6.9774 55.4445 6.92248C55.3949 6.86755 55.3337 6.82442 55.2653 6.79626C55.2056 6.78211 55.1436 6.78101 55.0835 6.79303C55.0233 6.80506 54.9665 6.82993 54.9169 6.86594C54.771 6.96473 54.6515 7.09759 54.5685 7.253C54.3601 7.60013 54.2379 7.9922 54.2123 8.3963C54.1867 8.80041 54.2584 9.20476 54.4215 9.57541C54.4747 9.61924 54.5127 9.67889 54.5298 9.74572C54.5548 9.84287 54.5471 9.94554 54.508 10.0379C54.4688 10.1302 54.4003 10.2071 54.3131 10.2566C54.2405 10.2924 54.1616 10.3135 54.0808 10.3186Z" fill="#231F20"/>
<path d="M53.9657 12.5634C53.4847 12.0598 53.1595 11.4281 53.029 10.7441C53.029 10.7441 52.1077 12.5943 53.3773 13.9645L53.9657 12.5634Z" fill="#231F20"/>
<path d="M53.3771 14.3518C53.3235 14.3513 53.2706 14.3401 53.2214 14.3188C53.1722 14.2975 53.1278 14.2667 53.0907 14.228C51.6585 12.6797 52.6417 10.6592 52.6804 10.5741C52.7187 10.4993 52.78 10.4386 52.8552 10.4011C52.9304 10.3635 53.0156 10.3508 53.0984 10.3651C53.1811 10.3797 53.2568 10.4209 53.3141 10.4823C53.3713 10.5438 53.407 10.6221 53.4158 10.7057C53.5368 11.2909 53.8244 11.8286 54.2441 12.2539C54.2973 12.3079 54.3331 12.3766 54.3469 12.4511C54.3607 12.5256 54.3519 12.6025 54.3216 12.672L53.7332 14.0732C53.7073 14.1332 53.6668 14.1859 53.6154 14.2264C53.5641 14.2669 53.5035 14.2941 53.439 14.3054L53.3771 14.3518ZM53.0984 12.0294C53.0512 12.4248 53.11 12.8255 53.2687 13.1906L53.4932 12.672C53.3455 12.4736 53.2135 12.2639 53.0984 12.0449V12.0294Z" fill="#231F20"/>
<path d="M58.5238 8.17684C58.6906 7.96529 58.7577 7.74015 58.6737 7.67399C58.5898 7.60784 58.3865 7.72571 58.2198 7.93726C58.0531 8.14882 57.986 8.37394 58.07 8.4401C58.1539 8.50626 58.3571 8.3884 58.5238 8.17684Z" fill="#231F20"/>
<path d="M58.9122 7.91126L58.2852 7.0752L58.9122 7.91126Z" fill="white"/>
<path d="M58.9121 8.29868C58.8509 8.30051 58.7902 8.2865 58.736 8.25803C58.6817 8.22955 58.6358 8.18756 58.6025 8.13611L57.9755 7.30004C57.9456 7.25953 57.924 7.21347 57.9121 7.16456C57.9002 7.11564 57.8982 7.06484 57.9061 7.01512C57.914 6.96541 57.9318 6.91777 57.9583 6.87498C57.9848 6.83219 58.0196 6.7951 58.0606 6.76589C58.1427 6.70429 58.246 6.67785 58.3476 6.69237C58.4492 6.70689 58.5409 6.76118 58.6025 6.84331L59.2218 7.67937C59.2519 7.7205 59.2736 7.76718 59.2856 7.81671C59.2976 7.86624 59.2997 7.91765 59.2918 7.968C59.2839 8.01835 59.2661 8.06664 59.2395 8.11011C59.2129 8.15357 59.1779 8.19134 59.1367 8.22127C59.0715 8.2695 58.9932 8.29652 58.9121 8.29868Z" fill="#231F20"/>
<path d="M6.64967 55.0635C6.64967 55.0635 0.4953 58.7174 0.4953 59.298C0.4953 59.8786 -0.185946 59.5689 1.92744 64.0047C2.8177 65.8859 6.92061 67.1013 6.50258 65.6846C5.31041 61.6049 5.38783 61.1714 5.38783 61.1714L10.2804 59.2051" fill="#231F20"/>
<path d="M5.85153 66.6911C4.54324 66.6911 2.26728 65.6383 1.57056 64.1674C-0.209948 60.4129 -0.0628681 59.9251 0.0764762 59.4529C0.0847203 59.4016 0.0847203 59.3494 0.0764762 59.2981C0.0764762 59.0581 0.0764784 58.524 6.41664 54.7307C6.50623 54.6795 6.6123 54.6655 6.71213 54.6915C6.81196 54.7175 6.89762 54.7816 6.9508 54.87C7.00158 54.9584 7.01544 55.0633 6.98935 55.1619C6.96326 55.2605 6.89933 55.3448 6.81146 55.3965C4.13295 56.9912 1.21445 58.8878 0.850611 59.3755C0.8423 59.4758 0.821506 59.5746 0.788691 59.6697C0.711277 59.9251 0.587407 60.3509 2.24406 63.8345C2.7008 64.8022 4.21036 65.6383 5.34059 65.8628C5.59315 65.938 5.86218 65.938 6.11473 65.8628C6.11473 65.8628 6.11473 65.8628 6.11473 65.7853C5.58551 64.2628 5.20948 62.6913 4.99224 61.0941C5.00354 61.0297 5.03069 60.969 5.07123 60.9177C5.11176 60.8663 5.16443 60.8259 5.22448 60.7999L10.117 58.8414C10.2115 58.8028 10.3174 58.8032 10.4116 58.8423C10.5058 58.8815 10.5808 58.9562 10.6202 59.0504C10.659 59.146 10.6589 59.2529 10.6198 59.3484C10.5808 59.4439 10.5059 59.5203 10.4112 59.5613L5.76637 61.4115C6.05143 62.8152 6.41062 64.2028 6.84242 65.5686C6.88273 65.6673 6.9022 65.7734 6.8996 65.88C6.89701 65.9866 6.8724 66.0916 6.82733 66.1882C6.78227 66.2849 6.71772 66.3712 6.63772 66.4418C6.55772 66.5123 6.46401 66.5656 6.36246 66.5982C6.19837 66.6569 6.02577 66.6882 5.85153 66.6911Z" fill="#231F20"/>
<path d="M77.0887 19.864C77.0887 19.864 82.616 20.0111 82.7166 19.864C82.8173 19.717 84.4275 10.8531 83.5527 11.217C82.6779 11.5808 80.8664 16.2333 80.8664 16.2333L76.4307 16.4501" fill="white"/>
<path d="M81.0522 20.3209C80.1929 20.3209 78.931 20.3209 77.0731 20.2512C76.9718 20.2472 76.8761 20.2036 76.8066 20.1297C76.7371 20.0559 76.6994 19.9578 76.7015 19.8564C76.7003 19.8049 76.7099 19.7538 76.7295 19.7062C76.7491 19.6586 76.7784 19.6157 76.8156 19.58C76.8527 19.5443 76.8968 19.5168 76.9451 19.4991C76.9935 19.4813 77.0449 19.4738 77.0963 19.4771C79.2639 19.5313 81.6869 19.5622 82.4146 19.5235C82.9348 16.9911 83.2737 14.4248 83.4287 11.8441C82.5391 13.2736 81.7998 14.7912 81.2224 16.3728C81.1956 16.4426 81.1492 16.5031 81.0888 16.547C81.0284 16.591 80.9565 16.6165 80.8819 16.6205L76.4538 16.8373C76.403 16.8398 76.3521 16.8323 76.3042 16.8152C76.2562 16.7981 76.2122 16.7717 76.1744 16.7376C76.0982 16.6686 76.0525 16.5722 76.0474 16.4696C76.0422 16.3669 76.0781 16.2664 76.1471 16.1902C76.216 16.114 76.3124 16.0683 76.4151 16.0632L80.5954 15.8541C81.1218 14.5226 82.5075 11.2093 83.4055 10.861C83.5066 10.8163 83.6199 10.8073 83.7268 10.8354C83.8337 10.8635 83.9279 10.9271 83.9939 11.0158C84.768 11.9912 83.0727 20.0345 83.0339 20.0887C82.9952 20.1428 82.8714 20.3209 81.0522 20.3209Z" fill="#231F20"/>
<path d="M53.9656 18.8183L49.6924 28.4795L52.1619 31.3129L54.9178 28.4795V17.9668L53.9656 18.8183Z" fill="#231F20"/>
<path d="M46.9827 12.3545L78.3506 15.6755L77.4526 21.3345C77.4526 21.3345 51.9062 21.9305 45.6279 19.9255" fill="white"/>
<path d="M68.9602 21.8067C60.9169 21.8067 49.5216 21.5667 45.5116 20.2971C45.4608 20.2818 45.4135 20.2567 45.3723 20.2232C45.3312 20.1896 45.2971 20.1483 45.2719 20.1016C45.2468 20.0549 45.2311 20.0037 45.2257 19.9509C45.2203 19.8981 45.2254 19.8447 45.2407 19.7939C45.2559 19.7431 45.281 19.6957 45.3146 19.6546C45.3481 19.6135 45.3894 19.5794 45.4362 19.5542C45.4829 19.5291 45.5341 19.5133 45.5869 19.508C45.6397 19.5026 45.693 19.5077 45.7439 19.5229C51.5499 21.3654 74.1469 20.9783 77.1195 20.9164L77.8937 15.9774L46.9283 12.7028C46.8775 12.6977 46.8281 12.6827 46.7831 12.6585C46.7381 12.6344 46.6983 12.6016 46.6659 12.5621C46.6336 12.5225 46.6093 12.477 46.5946 12.4281C46.5798 12.3792 46.5748 12.3279 46.5799 12.277C46.585 12.2262 46.6001 12.1769 46.6242 12.1319C46.6483 12.0869 46.6811 12.047 46.7207 12.0147C46.7602 11.9823 46.8057 11.9581 46.8546 11.9433C46.9035 11.9286 46.9549 11.9236 47.0057 11.9287L78.3814 15.2497C78.486 15.2648 78.5806 15.3204 78.6446 15.4046C78.6767 15.4458 78.7001 15.4932 78.7134 15.5437C78.7267 15.5943 78.7296 15.647 78.722 15.6987L77.824 21.3577C77.8094 21.4479 77.7633 21.5301 77.6938 21.5896C77.6244 21.6491 77.5361 21.6821 77.4447 21.6828C77.0808 21.706 73.574 21.8067 68.9602 21.8067Z" fill="#231F20"/>
</svg>
