<svg width="296" height="258" viewBox="0 0 296 258" fill="none" xmlns="http://www.w3.org/2000/svg">
<g clip-path="url(#clip0_135_5838)">
<path d="M234.987 128.419C235.296 128.019 235.513 127.555 235.623 127.062C235.733 126.568 235.734 126.057 235.625 125.563C235.516 125.07 235.299 124.606 234.992 124.204C234.684 123.803 234.291 123.474 233.842 123.241L234.527 115.367L229.838 113.785L229.028 124.918C228.686 125.697 228.642 126.575 228.904 127.385C229.166 128.194 229.716 128.88 230.45 129.312C231.185 129.743 232.052 129.891 232.888 129.726C233.724 129.562 234.47 129.097 234.986 128.42L234.987 128.419Z" fill="#D4C2A8"/>
<path d="M258.379 189.634H254.16L252.153 173.369H258.382L258.379 189.634Z" fill="#D4C2A8"/>
<path d="M251.145 188.429H259.285V193.549H246.021C246.021 192.191 246.56 190.889 247.522 189.928C248.483 188.968 249.786 188.429 251.145 188.429Z" fill="#4B1979"/>
<path d="M248.801 178.842L244.703 179.848L238.868 164.533L244.917 163.048L248.801 178.842Z" fill="#D4C2A8"/>
<path d="M241.545 179.251L249.448 177.307L250.673 182.279L237.793 185.446C237.468 184.128 237.681 182.734 238.385 181.572C239.088 180.411 240.225 179.575 241.545 179.251Z" fill="#4B1979"/>
<path d="M253.441 184.447C253.055 184.448 252.683 184.306 252.397 184.049C252.11 183.791 251.93 183.436 251.89 183.053L247.035 137.854L242.809 151.676L248.794 173.265C248.897 173.635 248.86 174.03 248.689 174.374C248.519 174.718 248.227 174.987 247.87 175.129L243.111 177.031C242.915 177.109 242.705 177.147 242.494 177.142C242.283 177.137 242.076 177.089 241.884 177.002C241.692 176.915 241.519 176.789 241.377 176.633C241.235 176.478 241.126 176.295 241.057 176.096L233.721 155.07C232.918 152.774 232.563 150.346 232.675 147.917L233.699 125.226L260.664 126.366L260.243 182.506C260.238 182.897 260.087 183.272 259.82 183.558C259.553 183.843 259.189 184.019 258.799 184.05L253.562 184.445C253.521 184.446 253.481 184.447 253.441 184.447Z" fill="#4B1979"/>
<path d="M248.975 75.0088C253.983 75.0088 258.042 70.9532 258.042 65.9502C258.042 60.9473 253.983 56.8916 248.975 56.8916C243.967 56.8916 239.908 60.9473 239.908 65.9502C239.908 70.9532 243.967 75.0088 248.975 75.0088Z" fill="#D4C2A8"/>
<path d="M255.643 127.843C253.255 127.843 250.29 127.648 247.22 127.446C243.026 127.17 238.69 126.885 235.452 127.072C235.015 127.116 234.574 127.046 234.171 126.871C233.769 126.696 233.418 126.421 233.152 126.071C229.815 121.803 234.961 105.156 235.182 104.45L239.37 85.8363L239.55 85.8768L239.37 85.8363C240.293 81.7423 243.236 78.7224 247.053 77.9553C250.627 77.2383 254.084 78.6675 256.301 81.7818C256.418 81.947 256.536 82.1166 256.653 82.2904C263.871 92.9704 259.788 119.504 259.515 121.215C259.896 121.672 261.958 124.252 261.391 126.044C261.161 126.773 260.535 127.27 259.53 127.519C258.25 127.772 256.946 127.88 255.642 127.842L255.643 127.843Z" fill="#A06ECE"/>
<path d="M235.599 127.851C234.777 127.851 233.669 127.548 232.176 126.929C231.534 126.662 229.58 125.85 231.952 105.142C233.117 94.9695 234.786 84.8682 234.803 84.7675L234.819 84.6701L234.909 84.6295C234.952 84.61 239.214 82.6582 239.955 80.1498C239.98 80.063 240.009 79.9788 240.042 79.8972C240.246 79.3396 240.657 78.8823 241.191 78.6206C241.724 78.3589 242.338 78.3131 242.904 78.4927C243.503 78.6356 244.024 79.0005 244.363 79.5134C244.702 80.0263 244.832 80.6487 244.729 81.2545C244.471 82.8905 243.974 84.48 243.255 85.9724C241.25 90.1069 239.891 101.068 239.877 101.178C239.801 102.114 237.981 124.293 237.63 125.976C237.507 126.563 237.282 127.283 236.621 127.632C236.304 127.788 235.953 127.864 235.599 127.853L235.599 127.851Z" fill="#4B1979"/>
<path d="M245.504 127.001C245.338 127.001 245.177 126.946 245.046 126.844C242.379 124.819 246.696 100.27 249.255 91.8002C249.767 90.1036 250.224 88.6516 250.612 87.4828C251.319 85.3855 251.812 83.2223 252.084 81.0262C252.225 79.8364 252.531 79.157 253.021 78.9486C253.361 78.8037 253.759 78.9021 254.21 79.2411C256.575 79.1245 258.873 80.0894 261.002 81.1519L262.919 82.1072L265.07 120.151C265.009 122.579 260.219 124.293 258.13 124.402C254.774 124.578 248.749 125.124 246.095 126.803C245.921 126.924 245.716 126.992 245.504 127L245.504 127.001Z" fill="#4B1979"/>
<path d="M233.522 119.863C233.49 119.863 233.459 119.863 233.426 119.86L229.082 119.593C228.866 119.58 228.655 119.522 228.462 119.423C228.269 119.323 228.1 119.185 227.963 119.017C227.827 118.848 227.727 118.654 227.671 118.445C227.614 118.236 227.601 118.017 227.634 117.803L229.6 104.792L233.3 86.5349C233.391 86.0852 233.576 85.6597 233.842 85.2859C234.109 84.9121 234.451 84.5984 234.846 84.3651C235.242 84.1318 235.682 83.9841 236.138 83.9316C236.594 83.8792 237.056 83.9231 237.495 84.0605C238.244 84.2993 238.883 84.7978 239.296 85.4659C239.71 86.1341 239.871 86.9279 239.75 87.7041L236.81 105.998L235.069 118.518C235.015 118.89 234.83 119.231 234.546 119.478C234.262 119.725 233.898 119.862 233.522 119.863H233.522Z" fill="#4B1979"/>
<path d="M248.363 105.62C248.628 105.19 248.984 104.822 249.407 104.544C249.829 104.266 250.308 104.083 250.808 104.01C251.309 103.936 251.82 103.973 252.304 104.118C252.789 104.263 253.236 104.512 253.614 104.849L260.737 101.411L263.884 105.226L253.757 109.939C253.149 110.536 252.344 110.89 251.493 110.933C250.642 110.976 249.805 110.706 249.14 110.173C248.475 109.641 248.029 108.884 247.885 108.044C247.742 107.205 247.912 106.343 248.363 105.62Z" fill="#D4C2A8"/>
<path d="M258.258 109.312C257.908 109.312 257.567 109.194 257.292 108.977C257.016 108.76 256.822 108.457 256.74 108.117L255.706 103.82C255.627 103.497 255.654 103.157 255.783 102.85C255.912 102.543 256.136 102.286 256.422 102.116L262.661 98.3853L259.472 86.718C259.196 85.7189 259.322 84.6516 259.824 83.7445C260.326 82.8374 261.163 82.1626 262.157 81.8647C263.151 81.5667 264.222 81.6692 265.141 82.1502C266.06 82.6313 266.753 83.4526 267.074 84.4384L270.595 95.1803C271.028 96.4897 271.031 97.9028 270.605 99.2143C270.179 100.526 269.345 101.667 268.225 102.473L259.173 109.016C258.907 109.208 258.587 109.312 258.258 109.312Z" fill="#4B1979"/>
<path d="M190.848 0H16.1578C14.5252 0.00195212 12.9601 0.65073 11.8057 1.80402C10.6513 2.95731 10.002 4.52094 10 6.15194V24.9323C10.002 26.5633 10.6513 28.127 11.8057 29.2802C12.9601 30.4335 14.5252 31.0823 16.1578 31.0843H190.848C192.48 31.0823 194.045 30.4335 195.2 29.2802C196.354 28.127 197.003 26.5633 197.005 24.9323V6.15194C197.003 4.52094 196.354 2.95731 195.2 1.80402C194.045 0.65073 192.48 0.00195212 190.848 0ZM196.357 24.9323C196.355 26.3915 195.774 27.7903 194.741 28.8221C193.708 29.8539 192.308 30.4345 190.848 30.4366H16.1578C14.6972 30.4345 13.2971 29.8539 12.2643 28.8221C11.2316 27.7903 10.6504 26.3915 10.6483 24.9323V6.15194C10.6504 4.69277 11.2316 3.29398 12.2643 2.26219C13.2971 1.2304 14.6972 0.649795 16.1578 0.647649H190.848C192.308 0.649795 193.708 1.2304 194.741 2.26219C195.774 3.29398 196.355 4.69277 196.357 6.15194V24.9323Z" fill="#3F3D56"/>
<path d="M190.848 75.4433H16.1578C14.5252 75.4413 12.9601 74.7925 11.8057 73.6392C10.6513 72.486 10.002 70.9223 10 69.2913V50.5113C10.002 48.8803 10.6513 47.3167 11.8057 46.1634C12.9601 45.0101 14.5252 44.3613 16.1578 44.3594H190.848C192.48 44.3613 194.045 45.0101 195.2 46.1634C196.354 47.3167 197.003 48.8803 197.005 50.5113V69.2913C197.003 70.9223 196.354 72.486 195.2 73.6392C194.045 74.7925 192.48 75.4413 190.848 75.4433ZM16.1578 45.007C14.6971 45.0087 13.2967 45.5891 12.2638 46.621C11.2309 47.6529 10.6499 49.052 10.6483 50.5113V69.2913C10.6496 70.7508 11.2305 72.1502 12.2634 73.1823C13.2963 74.2145 14.6969 74.7951 16.1578 74.7967H190.848C192.308 74.7952 193.709 74.2148 194.742 73.1829C195.775 72.1509 196.356 70.7518 196.357 69.2924V50.5113C196.356 49.052 195.775 47.6529 194.742 46.621C193.709 45.5891 192.309 45.0087 190.848 45.007H16.1578Z" fill="#CCCCCC"/>
<path d="M190.848 119.803H16.1578C14.5252 119.801 12.9601 119.152 11.8057 117.999C10.6513 116.845 10.002 115.282 10 113.651V94.8707C10.002 93.2397 10.6513 91.6761 11.8057 90.5228C12.9601 89.3695 14.5252 88.7207 16.1578 88.7188H190.848C192.48 88.7207 194.045 89.3695 195.2 90.5228C196.354 91.6761 197.003 93.2397 197.005 94.8707V113.651C197.003 115.282 196.354 116.845 195.2 117.999C194.045 119.152 192.48 119.801 190.848 119.803ZM16.1578 89.3649C14.6971 89.3666 13.2967 89.947 12.2638 90.9789C11.2309 92.0108 10.6499 93.4099 10.6483 94.8692V113.649C10.6498 115.109 11.2308 116.508 12.2637 117.54C13.2966 118.572 14.697 119.152 16.1578 119.154H190.848C192.308 119.152 193.709 118.572 194.742 117.54C195.775 116.508 196.356 115.109 196.357 113.65V94.8707C196.356 93.411 195.775 92.0115 194.742 90.9793C193.709 89.9471 192.309 89.3665 190.848 89.3649H16.1578Z" fill="#CCCCCC"/>
<path d="M39.7622 26.2502C37.6424 26.2502 35.5703 25.6222 33.8077 24.4456C32.0452 23.2691 30.6715 21.5968 29.8603 19.6402C29.0491 17.6837 28.8368 15.5307 29.2504 13.4536C29.6639 11.3766 30.6847 9.46864 32.1836 7.97116C33.6825 6.47367 35.5922 5.45387 37.6713 5.04071C39.7503 4.62755 41.9053 4.8396 43.8637 5.65003C45.8222 6.46047 47.496 7.83289 48.6737 9.59375C49.8514 11.3546 50.48 13.4248 50.48 15.5426C50.48 18.3824 49.3508 21.1059 47.3409 23.114C45.3309 25.1221 42.6048 26.2502 39.7622 26.2502Z" fill="#A06ECE"/>
<path d="M175.024 24.2843H60.6173C59.9296 24.2843 59.2701 24.0114 58.7839 23.5256C58.2976 23.0398 58.0244 22.381 58.0244 21.6939C58.0244 21.0069 58.2976 20.348 58.7839 19.8622C59.2701 19.3764 59.9296 19.1035 60.6173 19.1035H175.024C175.711 19.1035 176.371 19.3764 176.857 19.8622C177.343 20.348 177.616 21.0069 177.616 21.6939C177.616 22.381 177.343 23.0398 176.857 23.5256C176.371 24.0114 175.711 24.2843 175.024 24.2843Z" fill="#CCCCCC"/>
<path d="M137.75 13.2756H60.6144C59.9267 13.2756 59.2672 13.0026 58.7809 12.5168C58.2947 12.031 58.0215 11.3722 58.0215 10.6851C58.0215 9.99812 58.2947 9.33924 58.7809 8.85344C59.2672 8.36764 59.9267 8.09473 60.6144 8.09473H137.75C138.437 8.09473 139.097 8.36764 139.583 8.85344C140.069 9.33924 140.343 9.99812 140.343 10.6851C140.343 11.3722 140.069 12.031 139.583 12.5168C139.097 13.0026 138.437 13.2756 137.75 13.2756Z" fill="#CCCCCC"/>
<path d="M39.7622 70.6086C37.6424 70.6086 35.5703 69.9806 33.8077 68.804C32.0452 67.6275 30.6715 65.9552 29.8603 63.9986C29.0491 62.0421 28.8368 59.8891 29.2504 57.812C29.6639 55.735 30.6847 53.827 32.1836 52.3296C33.6825 50.8321 35.5922 49.8123 37.6713 49.3991C39.7503 48.986 41.9053 49.198 43.8637 50.0084C45.8222 50.8189 47.496 52.1913 48.6737 53.9521C49.8514 55.713 50.48 57.7832 50.48 59.901C50.48 62.7408 49.3508 65.4643 47.3409 67.4724C45.3309 69.4805 42.6048 70.6086 39.7622 70.6086Z" fill="#E6E6E6"/>
<path d="M175.024 68.6437H60.6173C59.9296 68.6437 59.2701 68.3708 58.7839 67.885C58.2976 67.3992 58.0244 66.7403 58.0244 66.0533C58.0244 65.3663 58.2976 64.7074 58.7839 64.2216C59.2701 63.7358 59.9296 63.4629 60.6173 63.4629H175.024C175.711 63.4629 176.371 63.7358 176.857 64.2216C177.343 64.7074 177.616 65.3663 177.616 66.0533C177.616 66.7403 177.343 67.3992 176.857 67.885C176.371 68.3708 175.711 68.6437 175.024 68.6437Z" fill="#E6E6E6"/>
<path d="M137.75 57.6349H60.6144C59.9267 57.6349 59.2672 57.362 58.7809 56.8762C58.2947 56.3904 58.0215 55.7315 58.0215 55.0445C58.0215 54.3575 58.2947 53.6986 58.7809 53.2128C59.2672 52.727 59.9267 52.4541 60.6144 52.4541H137.75C138.437 52.4541 139.097 52.727 139.583 53.2128C140.069 53.6986 140.343 54.3575 140.343 55.0445C140.343 55.7315 140.069 56.3904 139.583 56.8762C139.097 57.362 138.437 57.6349 137.75 57.6349Z" fill="#E6E6E6"/>
<path d="M39.7622 114.969C37.6424 114.969 35.5703 114.341 33.8077 113.164C32.0452 111.988 30.6715 110.316 29.8603 108.359C29.0491 106.402 28.8368 104.249 29.2504 102.172C29.6639 100.095 30.6847 98.1874 32.1836 96.6899C33.6825 95.1924 35.5922 94.1726 37.6713 93.7595C39.7503 93.3463 41.9053 93.5584 43.8637 94.3688C45.8222 95.1792 47.496 96.5516 48.6737 98.3125C49.8514 100.073 50.48 102.144 50.48 104.261C50.48 107.101 49.3508 109.825 47.3409 111.833C45.3309 113.841 42.6048 114.969 39.7622 114.969Z" fill="#E6E6E6"/>
<path d="M175.024 113.003H60.6173C59.9296 113.003 59.2701 112.73 58.7839 112.244C58.2976 111.759 58.0244 111.1 58.0244 110.413C58.0244 109.726 58.2976 109.067 58.7839 108.581C59.2701 108.095 59.9296 107.822 60.6173 107.822H175.024C175.711 107.822 176.371 108.095 176.857 108.581C177.343 109.067 177.616 109.726 177.616 110.413C177.616 111.1 177.343 111.759 176.857 112.244C176.371 112.73 175.711 113.003 175.024 113.003Z" fill="#E6E6E6"/>
<path d="M137.75 101.994H60.6144C59.9267 101.994 59.2672 101.721 58.7809 101.236C58.2947 100.75 58.0215 100.091 58.0215 99.4039C58.0215 98.7169 58.2947 98.058 58.7809 97.5722C59.2672 97.0864 59.9267 96.8135 60.6144 96.8135H137.75C138.437 96.8135 139.097 97.0864 139.583 97.5722C140.069 98.058 140.343 98.7169 140.343 99.4039C140.343 100.091 140.069 100.75 139.583 101.236C139.097 101.721 138.437 101.994 137.75 101.994Z" fill="#E6E6E6"/>
<path d="M39.2153 19.3085C38.9491 19.3091 38.6899 19.2232 38.4769 19.0636L38.4636 19.0536L35.6856 16.9307C35.5569 16.8322 35.449 16.7093 35.3678 16.569C35.2867 16.4288 35.234 16.274 35.2128 16.1134C35.1916 15.9529 35.2022 15.7897 35.2441 15.6332C35.2859 15.4767 35.3583 15.33 35.4569 15.2015C35.5555 15.073 35.6786 14.9651 35.8189 14.884C35.9593 14.803 36.1143 14.7503 36.275 14.7291C36.4357 14.7079 36.599 14.7185 36.7557 14.7604C36.9123 14.8022 37.0591 14.8745 37.1878 14.973L38.9871 16.3517L43.2389 10.8098C43.438 10.5504 43.7321 10.3806 44.0565 10.3378C44.3809 10.295 44.7091 10.3826 44.9688 10.5815L44.9426 10.6183L44.9695 10.5815C45.2289 10.7807 45.3986 11.0746 45.4413 11.3987C45.4841 11.7227 45.3965 12.0505 45.1977 12.3101L40.1965 18.8257C40.0806 18.9756 39.9318 19.0968 39.7615 19.1799C39.5912 19.263 39.4041 19.3059 39.2145 19.3052L39.2153 19.3085Z" fill="white"/>
<path d="M285.631 194H212.535C212.437 194 212.343 193.961 212.274 193.892C212.204 193.823 212.166 193.729 212.166 193.632C212.166 193.534 212.204 193.44 212.274 193.371C212.343 193.302 212.437 193.263 212.535 193.263H285.631C285.729 193.263 285.822 193.302 285.892 193.371C285.961 193.44 286 193.534 286 193.632C286 193.729 285.961 193.823 285.892 193.892C285.822 193.961 285.729 194 285.631 194Z" fill="#CCCCCC"/>
<path d="M252.308 68.3649C252.308 68.3649 251.205 62.2697 248.694 62.998C246.183 63.7262 239.721 64.4713 239.709 61.6008C239.697 58.7303 245.792 56.193 249.385 56.5364C252.978 56.8798 259.088 57.9304 258.752 63.3141C258.482 66.7047 257.433 69.9876 255.686 72.9071L252.308 68.3649Z" fill="#4B1979"/>
</g>
<path d="M20.8634 223.27V233H19.2674V226.336L16.2994 233H15.1934L12.2114 226.336V233H10.6154V223.27H12.3374L15.7534 230.9L19.1554 223.27H20.8634ZM22.4291 229.108C22.4291 228.333 22.5878 227.647 22.9051 227.05C23.2318 226.453 23.6705 225.991 24.2211 225.664C24.7811 225.328 25.3971 225.16 26.0691 225.16C26.6758 225.16 27.2031 225.281 27.6511 225.524C28.1085 225.757 28.4725 226.051 28.7431 226.406V225.286H30.3531V233H28.7431V231.852C28.4725 232.216 28.1038 232.519 27.6371 232.762C27.1705 233.005 26.6385 233.126 26.0411 233.126C25.3785 233.126 24.7718 232.958 24.2211 232.622C23.6705 232.277 23.2318 231.801 22.9051 231.194C22.5878 230.578 22.4291 229.883 22.4291 229.108ZM28.7431 229.136C28.7431 228.604 28.6311 228.142 28.4071 227.75C28.1925 227.358 27.9078 227.059 27.5531 226.854C27.1985 226.649 26.8158 226.546 26.4051 226.546C25.9945 226.546 25.6118 226.649 25.2571 226.854C24.9025 227.05 24.6131 227.344 24.3891 227.736C24.1745 228.119 24.0671 228.576 24.0671 229.108C24.0671 229.64 24.1745 230.107 24.3891 230.508C24.6131 230.909 24.9025 231.217 25.2571 231.432C25.6211 231.637 26.0038 231.74 26.4051 231.74C26.8158 231.74 27.1985 231.637 27.5531 231.432C27.9078 231.227 28.1925 230.928 28.4071 230.536C28.6311 230.135 28.7431 229.668 28.7431 229.136ZM31.9174 229.108C31.9174 228.333 32.0761 227.647 32.3934 227.05C32.7201 226.453 33.1587 225.991 33.7094 225.664C34.2694 225.328 34.8854 225.16 35.5574 225.16C36.1641 225.16 36.6914 225.281 37.1394 225.524C37.5967 225.757 37.9607 226.051 38.2314 226.406V225.286H39.8414V233H38.2314V231.852C37.9607 232.216 37.5921 232.519 37.1254 232.762C36.6587 233.005 36.1267 233.126 35.5294 233.126C34.8667 233.126 34.2601 232.958 33.7094 232.622C33.1587 232.277 32.7201 231.801 32.3934 231.194C32.0761 230.578 31.9174 229.883 31.9174 229.108ZM38.2314 229.136C38.2314 228.604 38.1194 228.142 37.8954 227.75C37.6807 227.358 37.3961 227.059 37.0414 226.854C36.6867 226.649 36.3041 226.546 35.8934 226.546C35.4827 226.546 35.1001 226.649 34.7454 226.854C34.3907 227.05 34.1014 227.344 33.8774 227.736C33.6627 228.119 33.5554 228.576 33.5554 229.108C33.5554 229.64 33.6627 230.107 33.8774 230.508C34.1014 230.909 34.3907 231.217 34.7454 231.432C35.1094 231.637 35.4921 231.74 35.8934 231.74C36.3041 231.74 36.6867 231.637 37.0414 231.432C37.3961 231.227 37.6807 230.928 37.8954 230.536C38.1194 230.135 38.2314 229.668 38.2314 229.136ZM45.1717 226.588H43.7437V233H42.1337V226.588H41.2237V225.286H42.1337V224.74C42.1337 223.853 42.367 223.209 42.8337 222.808C43.3097 222.397 44.0517 222.192 45.0597 222.192V223.522C44.5744 223.522 44.2337 223.615 44.0377 223.802C43.8417 223.979 43.7437 224.292 43.7437 224.74V225.286H45.1717V226.588ZM48.3361 231.082L46.6421 234.946H45.6061L46.6001 231.082H48.3361ZM54.9634 226.42C55.234 226.065 55.6027 225.767 56.0694 225.524C56.536 225.281 57.0634 225.16 57.6514 225.16C58.3234 225.16 58.9347 225.328 59.4854 225.664C60.0454 225.991 60.484 226.453 60.8014 227.05C61.1187 227.647 61.2774 228.333 61.2774 229.108C61.2774 229.883 61.1187 230.578 60.8014 231.194C60.484 231.801 60.0454 232.277 59.4854 232.622C58.9347 232.958 58.3234 233.126 57.6514 233.126C57.0634 233.126 56.5407 233.009 56.0834 232.776C55.626 232.533 55.2527 232.235 54.9634 231.88V236.668H53.3674V225.286H54.9634V226.42ZM59.6534 229.108C59.6534 228.576 59.5414 228.119 59.3174 227.736C59.1027 227.344 58.8134 227.05 58.4494 226.854C58.0947 226.649 57.712 226.546 57.3014 226.546C56.9 226.546 56.5174 226.649 56.1534 226.854C55.7987 227.059 55.5094 227.358 55.2854 227.75C55.0707 228.142 54.9634 228.604 54.9634 229.136C54.9634 229.668 55.0707 230.135 55.2854 230.536C55.5094 230.928 55.7987 231.227 56.1534 231.432C56.5174 231.637 56.9 231.74 57.3014 231.74C57.712 231.74 58.0947 231.637 58.4494 231.432C58.8134 231.217 59.1027 230.909 59.3174 230.508C59.5414 230.107 59.6534 229.64 59.6534 229.108ZM69.9257 228.954C69.9257 229.243 69.907 229.505 69.8697 229.738H63.9757C64.0223 230.354 64.251 230.849 64.6617 231.222C65.0723 231.595 65.5763 231.782 66.1737 231.782C67.0323 231.782 67.639 231.423 67.9937 230.704H69.7157C69.4823 231.413 69.0577 231.997 68.4417 232.454C67.835 232.902 67.079 233.126 66.1737 233.126C65.4363 233.126 64.7737 232.963 64.1857 232.636C63.607 232.3 63.1497 231.833 62.8137 231.236C62.487 230.629 62.3237 229.929 62.3237 229.136C62.3237 228.343 62.4823 227.647 62.7997 227.05C63.1263 226.443 63.579 225.977 64.1577 225.65C64.7457 225.323 65.4177 225.16 66.1737 225.16C66.9017 225.16 67.5503 225.319 68.1197 225.636C68.689 225.953 69.1323 226.401 69.4497 226.98C69.767 227.549 69.9257 228.207 69.9257 228.954ZM68.2597 228.45C68.2503 227.862 68.0403 227.391 67.6297 227.036C67.219 226.681 66.7103 226.504 66.1037 226.504C65.553 226.504 65.0817 226.681 64.6897 227.036C64.2977 227.381 64.0643 227.853 63.9897 228.45H68.2597ZM75.3883 225.16C75.995 225.16 76.5363 225.286 77.0123 225.538C77.4976 225.79 77.8756 226.163 78.1463 226.658C78.417 227.153 78.5523 227.75 78.5523 228.45V233H76.9703V228.688C76.9703 227.997 76.7976 227.47 76.4523 227.106C76.107 226.733 75.6356 226.546 75.0383 226.546C74.441 226.546 73.965 226.733 73.6103 227.106C73.265 227.47 73.0923 227.997 73.0923 228.688V233H71.4963V225.286H73.0923V226.168C73.3536 225.851 73.685 225.603 74.0863 225.426C74.497 225.249 74.931 225.16 75.3883 225.16ZM80.0561 229.136C80.0561 228.343 80.2148 227.647 80.5321 227.05C80.8588 226.443 81.3068 225.977 81.8761 225.65C82.4454 225.323 83.0988 225.16 83.8361 225.16C84.7694 225.16 85.5394 225.384 86.1461 225.832C86.7621 226.271 87.1774 226.901 87.3921 227.722H85.6701C85.5301 227.339 85.3061 227.041 84.9981 226.826C84.6901 226.611 84.3028 226.504 83.8361 226.504C83.1828 226.504 82.6601 226.737 82.2681 227.204C81.8854 227.661 81.6941 228.305 81.6941 229.136C81.6941 229.967 81.8854 230.615 82.2681 231.082C82.6601 231.549 83.1828 231.782 83.8361 231.782C84.7601 231.782 85.3714 231.376 85.6701 230.564H87.3921C87.1681 231.348 86.7481 231.973 86.1321 232.44C85.5161 232.897 84.7508 233.126 83.8361 233.126C83.0988 233.126 82.4454 232.963 81.8761 232.636C81.3068 232.3 80.8588 231.833 80.5321 231.236C80.2148 230.629 80.0561 229.929 80.0561 229.136ZM88.4506 229.108C88.4506 228.333 88.6093 227.647 88.9266 227.05C89.2533 226.453 89.692 225.991 90.2426 225.664C90.8026 225.328 91.4186 225.16 92.0906 225.16C92.6973 225.16 93.2246 225.281 93.6726 225.524C94.13 225.757 94.494 226.051 94.7646 226.406V225.286H96.3746V233H94.7646V231.852C94.494 232.216 94.1253 232.519 93.6586 232.762C93.192 233.005 92.66 233.126 92.0626 233.126C91.4 233.126 90.7933 232.958 90.2426 232.622C89.692 232.277 89.2533 231.801 88.9266 231.194C88.6093 230.578 88.4506 229.883 88.4506 229.108ZM94.7646 229.136C94.7646 228.604 94.6526 228.142 94.4286 227.75C94.214 227.358 93.9293 227.059 93.5746 226.854C93.22 226.649 92.8373 226.546 92.4266 226.546C92.016 226.546 91.6333 226.649 91.2786 226.854C90.924 227.05 90.6346 227.344 90.4106 227.736C90.196 228.119 90.0886 228.576 90.0886 229.108C90.0886 229.64 90.196 230.107 90.4106 230.508C90.6346 230.909 90.924 231.217 91.2786 231.432C91.6426 231.637 92.0253 231.74 92.4266 231.74C92.8373 231.74 93.22 231.637 93.5746 231.432C93.9293 231.227 94.214 230.928 94.4286 230.536C94.6526 230.135 94.7646 229.668 94.7646 229.136ZM100.067 226.406C100.3 226.014 100.608 225.711 100.991 225.496C101.383 225.272 101.845 225.16 102.377 225.16V226.812H101.971C101.346 226.812 100.87 226.971 100.543 227.288C100.226 227.605 100.067 228.156 100.067 228.94V233H98.4709V225.286H100.067V226.406ZM104.656 224.264C104.367 224.264 104.124 224.166 103.928 223.97C103.732 223.774 103.634 223.531 103.634 223.242C103.634 222.953 103.732 222.71 103.928 222.514C104.124 222.318 104.367 222.22 104.656 222.22C104.936 222.22 105.174 222.318 105.37 222.514C105.566 222.71 105.664 222.953 105.664 223.242C105.664 223.531 105.566 223.774 105.37 223.97C105.174 224.166 104.936 224.264 104.656 224.264ZM105.44 225.286V233H103.844V225.286H105.44ZM107.003 229.108C107.003 228.333 107.162 227.647 107.479 227.05C107.806 226.453 108.245 225.991 108.795 225.664C109.355 225.328 109.971 225.16 110.643 225.16C111.25 225.16 111.777 225.281 112.225 225.524C112.683 225.757 113.047 226.051 113.317 226.406V225.286H114.927V233H113.317V231.852C113.047 232.216 112.678 232.519 112.211 232.762C111.745 233.005 111.213 233.126 110.615 233.126C109.953 233.126 109.346 232.958 108.795 232.622C108.245 232.277 107.806 231.801 107.479 231.194C107.162 230.578 107.003 229.883 107.003 229.108ZM113.317 229.136C113.317 228.604 113.205 228.142 112.981 227.75C112.767 227.358 112.482 227.059 112.127 226.854C111.773 226.649 111.39 226.546 110.979 226.546C110.569 226.546 110.186 226.649 109.831 226.854C109.477 227.05 109.187 227.344 108.963 227.736C108.749 228.119 108.641 228.576 108.641 229.108C108.641 229.64 108.749 230.107 108.963 230.508C109.187 230.909 109.477 231.217 109.831 231.432C110.195 231.637 110.578 231.74 110.979 231.74C111.39 231.74 111.773 231.637 112.127 231.432C112.482 231.227 112.767 230.928 112.981 230.536C113.205 230.135 113.317 229.668 113.317 229.136ZM120.916 225.16C121.522 225.16 122.064 225.286 122.54 225.538C123.025 225.79 123.403 226.163 123.674 226.658C123.944 227.153 124.08 227.75 124.08 228.45V233H122.498V228.688C122.498 227.997 122.325 227.47 121.98 227.106C121.634 226.733 121.163 226.546 120.566 226.546C119.968 226.546 119.492 226.733 119.138 227.106C118.792 227.47 118.62 227.997 118.62 228.688V233H117.024V225.286H118.62V226.168C118.881 225.851 119.212 225.603 119.614 225.426C120.024 225.249 120.458 225.16 120.916 225.16ZM135.618 231.012H131.544L130.844 233H129.178L132.664 223.256H134.512L137.998 233H136.318L135.618 231.012ZM135.17 229.71L133.588 225.188L131.992 229.71H135.17ZM143.406 225.16C144.013 225.16 144.554 225.286 145.03 225.538C145.515 225.79 145.893 226.163 146.164 226.658C146.435 227.153 146.57 227.75 146.57 228.45V233H144.988V228.688C144.988 227.997 144.815 227.47 144.47 227.106C144.125 226.733 143.653 226.546 143.056 226.546C142.459 226.546 141.983 226.733 141.628 227.106C141.283 227.47 141.11 227.997 141.11 228.688V233H139.514V225.286H141.11V226.168C141.371 225.851 141.703 225.603 142.104 225.426C142.515 225.249 142.949 225.16 143.406 225.16ZM148.074 229.108C148.074 228.333 148.232 227.647 148.55 227.05C148.876 226.453 149.315 225.991 149.866 225.664C150.426 225.328 151.046 225.16 151.728 225.16C152.232 225.16 152.726 225.272 153.212 225.496C153.706 225.711 154.098 226 154.388 226.364V222.64H155.998V233H154.388V231.838C154.126 232.211 153.762 232.519 153.296 232.762C152.838 233.005 152.311 233.126 151.714 233.126C151.042 233.126 150.426 232.958 149.866 232.622C149.315 232.277 148.876 231.801 148.55 231.194C148.232 230.578 148.074 229.883 148.074 229.108ZM154.388 229.136C154.388 228.604 154.276 228.142 154.052 227.75C153.837 227.358 153.552 227.059 153.198 226.854C152.843 226.649 152.46 226.546 152.05 226.546C151.639 226.546 151.256 226.649 150.902 226.854C150.547 227.05 150.258 227.344 150.034 227.736C149.819 228.119 149.712 228.576 149.712 229.108C149.712 229.64 149.819 230.107 150.034 230.508C150.258 230.909 150.547 231.217 150.902 231.432C151.266 231.637 151.648 231.74 152.05 231.74C152.46 231.74 152.843 231.637 153.198 231.432C153.552 231.227 153.837 230.928 154.052 230.536C154.276 230.135 154.388 229.668 154.388 229.136ZM157.562 229.108C157.562 228.333 157.721 227.647 158.038 227.05C158.365 226.453 158.803 225.991 159.354 225.664C159.914 225.328 160.53 225.16 161.202 225.16C161.809 225.16 162.336 225.281 162.784 225.524C163.241 225.757 163.605 226.051 163.876 226.406V225.286H165.486V233H163.876V231.852C163.605 232.216 163.237 232.519 162.77 232.762C162.303 233.005 161.771 233.126 161.174 233.126C160.511 233.126 159.905 232.958 159.354 232.622C158.803 232.277 158.365 231.801 158.038 231.194C157.721 230.578 157.562 229.883 157.562 229.108ZM163.876 229.136C163.876 228.604 163.764 228.142 163.54 227.75C163.325 227.358 163.041 227.059 162.686 226.854C162.331 226.649 161.949 226.546 161.538 226.546C161.127 226.546 160.745 226.649 160.39 226.854C160.035 227.05 159.746 227.344 159.522 227.736C159.307 228.119 159.2 228.576 159.2 229.108C159.2 229.64 159.307 230.107 159.522 230.508C159.746 230.909 160.035 231.217 160.39 231.432C160.754 231.637 161.137 231.74 161.538 231.74C161.949 231.74 162.331 231.637 162.686 231.432C163.041 231.227 163.325 230.928 163.54 230.536C163.764 230.135 163.876 229.668 163.876 229.136ZM173.081 226.588V230.858C173.081 231.147 173.146 231.357 173.277 231.488C173.417 231.609 173.65 231.67 173.977 231.67H174.957V233H173.697C172.978 233 172.428 232.832 172.045 232.496C171.662 232.16 171.471 231.614 171.471 230.858V226.588H170.561V225.286H171.471V223.368H173.081V225.286H174.957V226.588H173.081ZM177.24 224.264C176.951 224.264 176.708 224.166 176.512 223.97C176.316 223.774 176.218 223.531 176.218 223.242C176.218 222.953 176.316 222.71 176.512 222.514C176.708 222.318 176.951 222.22 177.24 222.22C177.52 222.22 177.758 222.318 177.954 222.514C178.15 222.71 178.248 222.953 178.248 223.242C178.248 223.531 178.15 223.774 177.954 223.97C177.758 224.166 177.52 224.264 177.24 224.264ZM178.024 225.286V233H176.428V225.286H178.024ZM179.587 229.108C179.587 228.333 179.746 227.647 180.063 227.05C180.39 226.453 180.829 225.991 181.379 225.664C181.939 225.328 182.56 225.16 183.241 225.16C183.745 225.16 184.24 225.272 184.725 225.496C185.22 225.711 185.612 226 185.901 226.364V222.64H187.511V233H185.901V231.838C185.64 232.211 185.276 232.519 184.809 232.762C184.352 233.005 183.825 233.126 183.227 233.126C182.555 233.126 181.939 232.958 181.379 232.622C180.829 232.277 180.39 231.801 180.063 231.194C179.746 230.578 179.587 229.883 179.587 229.108ZM185.901 229.136C185.901 228.604 185.789 228.142 185.565 227.75C185.351 227.358 185.066 227.059 184.711 226.854C184.357 226.649 183.974 226.546 183.563 226.546C183.153 226.546 182.77 226.649 182.415 226.854C182.061 227.05 181.771 227.344 181.547 227.736C181.333 228.119 181.225 228.576 181.225 229.108C181.225 229.64 181.333 230.107 181.547 230.508C181.771 230.909 182.061 231.217 182.415 231.432C182.779 231.637 183.162 231.74 183.563 231.74C183.974 231.74 184.357 231.637 184.711 231.432C185.066 231.227 185.351 230.928 185.565 230.536C185.789 230.135 185.901 229.668 185.901 229.136ZM189.076 229.108C189.076 228.333 189.234 227.647 189.552 227.05C189.878 226.453 190.317 225.991 190.868 225.664C191.428 225.328 192.044 225.16 192.716 225.16C193.322 225.16 193.85 225.281 194.298 225.524C194.755 225.757 195.119 226.051 195.39 226.406V225.286H197V233H195.39V231.852C195.119 232.216 194.75 232.519 194.284 232.762C193.817 233.005 193.285 233.126 192.688 233.126C192.025 233.126 191.418 232.958 190.868 232.622C190.317 232.277 189.878 231.801 189.552 231.194C189.234 230.578 189.076 229.883 189.076 229.108ZM195.39 229.136C195.39 228.604 195.278 228.142 195.054 227.75C194.839 227.358 194.554 227.059 194.2 226.854C193.845 226.649 193.462 226.546 193.052 226.546C192.641 226.546 192.258 226.649 191.904 226.854C191.549 227.05 191.26 227.344 191.036 227.736C190.821 228.119 190.714 228.576 190.714 229.108C190.714 229.64 190.821 230.107 191.036 230.508C191.26 230.909 191.549 231.217 191.904 231.432C192.268 231.637 192.65 231.74 193.052 231.74C193.462 231.74 193.845 231.637 194.2 231.432C194.554 231.227 194.839 230.928 195.054 230.536C195.278 230.135 195.39 229.668 195.39 229.136ZM202.148 229.15L205.704 233H203.548L200.692 229.682V233H199.096V222.64H200.692V228.66L203.492 225.286H205.704L202.148 229.15ZM209.953 229.108C209.953 228.333 210.111 227.647 210.429 227.05C210.755 226.453 211.194 225.991 211.745 225.664C212.305 225.328 212.925 225.16 213.607 225.16C214.111 225.16 214.605 225.272 215.091 225.496C215.585 225.711 215.977 226 216.267 226.364V222.64H217.877V233H216.267V231.838C216.005 232.211 215.641 232.519 215.175 232.762C214.717 233.005 214.19 233.126 213.593 233.126C212.921 233.126 212.305 232.958 211.745 232.622C211.194 232.277 210.755 231.801 210.429 231.194C210.111 230.578 209.953 229.883 209.953 229.108ZM216.267 229.136C216.267 228.604 216.155 228.142 215.931 227.75C215.716 227.358 215.431 227.059 215.077 226.854C214.722 226.649 214.339 226.546 213.929 226.546C213.518 226.546 213.135 226.649 212.781 226.854C212.426 227.05 212.137 227.344 211.913 227.736C211.698 228.119 211.591 228.576 211.591 229.108C211.591 229.64 211.698 230.107 211.913 230.508C212.137 230.909 212.426 231.217 212.781 231.432C213.145 231.637 213.527 231.74 213.929 231.74C214.339 231.74 214.722 231.637 215.077 231.432C215.431 231.227 215.716 230.928 215.931 230.536C216.155 230.135 216.267 229.668 216.267 229.136ZM220.785 224.264C220.496 224.264 220.253 224.166 220.057 223.97C219.861 223.774 219.763 223.531 219.763 223.242C219.763 222.953 219.861 222.71 220.057 222.514C220.253 222.318 220.496 222.22 220.785 222.22C221.065 222.22 221.303 222.318 221.499 222.514C221.695 222.71 221.793 222.953 221.793 223.242C221.793 223.531 221.695 223.774 221.499 223.97C221.303 224.166 221.065 224.264 220.785 224.264ZM221.569 225.286V233H219.973V225.286H221.569ZM225.526 226.588V230.858C225.526 231.147 225.592 231.357 225.722 231.488C225.862 231.609 226.096 231.67 226.422 231.67H227.402V233H226.142C225.424 233 224.873 232.832 224.49 232.496C224.108 232.16 223.916 231.614 223.916 230.858V226.588H223.006V225.286H223.916V223.368H225.526V225.286H227.402V226.588H225.526ZM235.943 228.954C235.943 229.243 235.925 229.505 235.887 229.738H229.993C230.04 230.354 230.269 230.849 230.679 231.222C231.09 231.595 231.594 231.782 232.191 231.782C233.05 231.782 233.657 231.423 234.011 230.704H235.733C235.5 231.413 235.075 231.997 234.459 232.454C233.853 232.902 233.097 233.126 232.191 233.126C231.454 233.126 230.791 232.963 230.203 232.636C229.625 232.3 229.167 231.833 228.831 231.236C228.505 230.629 228.341 229.929 228.341 229.136C228.341 228.343 228.5 227.647 228.817 227.05C229.144 226.443 229.597 225.977 230.175 225.65C230.763 225.323 231.435 225.16 232.191 225.16C232.919 225.16 233.568 225.319 234.137 225.636C234.707 225.953 235.15 226.401 235.467 226.98C235.785 227.549 235.943 228.207 235.943 228.954ZM234.277 228.45C234.268 227.862 234.058 227.391 233.647 227.036C233.237 226.681 232.728 226.504 232.121 226.504C231.571 226.504 231.099 226.681 230.707 227.036C230.315 227.381 230.082 227.853 230.007 228.45H234.277ZM246.852 225.16C247.459 225.16 248 225.286 248.476 225.538C248.961 225.79 249.339 226.163 249.61 226.658C249.89 227.153 250.03 227.75 250.03 228.45V233H248.448V228.688C248.448 227.997 248.275 227.47 247.93 227.106C247.585 226.733 247.113 226.546 246.516 226.546C245.919 226.546 245.443 226.733 245.088 227.106C244.743 227.47 244.57 227.997 244.57 228.688V233H242.988V228.688C242.988 227.997 242.815 227.47 242.47 227.106C242.125 226.733 241.653 226.546 241.056 226.546C240.459 226.546 239.983 226.733 239.628 227.106C239.283 227.47 239.11 227.997 239.11 228.688V233H237.514V225.286H239.11V226.168C239.371 225.851 239.703 225.603 240.104 225.426C240.505 225.249 240.935 225.16 241.392 225.16C242.008 225.16 242.559 225.291 243.044 225.552C243.529 225.813 243.903 226.191 244.164 226.686C244.397 226.219 244.761 225.851 245.256 225.58C245.751 225.3 246.283 225.16 246.852 225.16ZM259.047 225.286V233H257.451V232.09C257.199 232.407 256.867 232.659 256.457 232.846C256.055 233.023 255.626 233.112 255.169 233.112C254.562 233.112 254.016 232.986 253.531 232.734C253.055 232.482 252.677 232.109 252.397 231.614C252.126 231.119 251.991 230.522 251.991 229.822V225.286H253.573V229.584C253.573 230.275 253.745 230.807 254.091 231.18C254.436 231.544 254.907 231.726 255.505 231.726C256.102 231.726 256.573 231.544 256.919 231.18C257.273 230.807 257.451 230.275 257.451 229.584V225.286H259.047ZM264.205 229.15L267.761 233H265.605L262.749 229.682V233H261.153V222.64H262.749V228.66L265.549 225.286H267.761L264.205 229.15ZM268.372 229.108C268.372 228.333 268.531 227.647 268.848 227.05C269.175 226.453 269.614 225.991 270.164 225.664C270.724 225.328 271.34 225.16 272.012 225.16C272.619 225.16 273.146 225.281 273.594 225.524C274.052 225.757 274.416 226.051 274.686 226.406V225.286H276.296V233H274.686V231.852C274.416 232.216 274.047 232.519 273.58 232.762C273.114 233.005 272.582 233.126 271.984 233.126C271.322 233.126 270.715 232.958 270.164 232.622C269.614 232.277 269.175 231.801 268.848 231.194C268.531 230.578 268.372 229.883 268.372 229.108ZM274.686 229.136C274.686 228.604 274.574 228.142 274.35 227.75C274.136 227.358 273.851 227.059 273.496 226.854C273.142 226.649 272.759 226.546 272.348 226.546C271.938 226.546 271.555 226.649 271.2 226.854C270.846 227.05 270.556 227.344 270.332 227.736C270.118 228.119 270.01 228.576 270.01 229.108C270.01 229.64 270.118 230.107 270.332 230.508C270.556 230.909 270.846 231.217 271.2 231.432C271.564 231.637 271.947 231.74 272.348 231.74C272.759 231.74 273.142 231.637 273.496 231.432C273.851 231.227 274.136 230.928 274.35 230.536C274.574 230.135 274.686 229.668 274.686 229.136ZM282.285 225.16C282.891 225.16 283.433 225.286 283.909 225.538C284.394 225.79 284.772 226.163 285.043 226.658C285.313 227.153 285.449 227.75 285.449 228.45V233H283.867V228.688C283.867 227.997 283.694 227.47 283.349 227.106C283.003 226.733 282.532 226.546 281.935 226.546C281.337 226.546 280.861 226.733 280.507 227.106C280.161 227.47 279.989 227.997 279.989 228.688V233H278.393V225.286H279.989V226.168C280.25 225.851 280.581 225.603 280.983 225.426C281.393 225.249 281.827 225.16 282.285 225.16Z" fill="black"/>
<path d="M42.8618 248.114C42.8618 247.162 43.0811 246.308 43.5198 245.552C43.9678 244.796 44.5698 244.208 45.3258 243.788C46.0911 243.359 46.9264 243.144 47.8318 243.144C48.8678 243.144 49.7871 243.401 50.5898 243.914C51.4018 244.418 51.9898 245.137 52.3538 246.07H50.4358C50.1838 245.557 49.8338 245.174 49.3858 244.922C48.9378 244.67 48.4198 244.544 47.8318 244.544C47.1878 244.544 46.6138 244.689 46.1098 244.978C45.6058 245.267 45.2091 245.683 44.9198 246.224C44.6398 246.765 44.4998 247.395 44.4998 248.114C44.4998 248.833 44.6398 249.463 44.9198 250.004C45.2091 250.545 45.6058 250.965 46.1098 251.264C46.6138 251.553 47.1878 251.698 47.8318 251.698C48.4198 251.698 48.9378 251.572 49.3858 251.32C49.8338 251.068 50.1838 250.685 50.4358 250.172H52.3538C51.9898 251.105 51.4018 251.824 50.5898 252.328C49.7871 252.832 48.8678 253.084 47.8318 253.084C46.9171 253.084 46.0818 252.874 45.3258 252.454C44.5698 252.025 43.9678 251.432 43.5198 250.676C43.0811 249.92 42.8618 249.066 42.8618 248.114ZM57.5679 253.126C56.8399 253.126 56.1819 252.963 55.5939 252.636C55.0059 252.3 54.5439 251.833 54.2079 251.236C53.8719 250.629 53.7039 249.929 53.7039 249.136C53.7039 248.352 53.8765 247.657 54.2219 247.05C54.5672 246.443 55.0385 245.977 55.6359 245.65C56.2332 245.323 56.9005 245.16 57.6379 245.16C58.3752 245.16 59.0425 245.323 59.6399 245.65C60.2372 245.977 60.7085 246.443 61.0539 247.05C61.3992 247.657 61.5719 248.352 61.5719 249.136C61.5719 249.92 61.3945 250.615 61.0399 251.222C60.6852 251.829 60.1999 252.3 59.5839 252.636C58.9772 252.963 58.3052 253.126 57.5679 253.126ZM57.5679 251.74C57.9785 251.74 58.3612 251.642 58.7159 251.446C59.0799 251.25 59.3739 250.956 59.5979 250.564C59.8219 250.172 59.9339 249.696 59.9339 249.136C59.9339 248.576 59.8265 248.105 59.6119 247.722C59.3972 247.33 59.1125 247.036 58.7579 246.84C58.4032 246.644 58.0205 246.546 57.6099 246.546C57.1992 246.546 56.8165 246.644 56.4619 246.84C56.1165 247.036 55.8412 247.33 55.6359 247.722C55.4305 248.105 55.3279 248.576 55.3279 249.136C55.3279 249.967 55.5379 250.611 55.9579 251.068C56.3872 251.516 56.9239 251.74 57.5679 251.74ZM64.7456 246.434C65.0163 246.061 65.3849 245.757 65.8516 245.524C66.3276 245.281 66.8549 245.16 67.4336 245.16C68.1149 245.16 68.7309 245.323 69.2816 245.65C69.8323 245.977 70.2663 246.443 70.5836 247.05C70.9009 247.647 71.0596 248.333 71.0596 249.108C71.0596 249.883 70.9009 250.578 70.5836 251.194C70.2663 251.801 69.8276 252.277 69.2676 252.622C68.7169 252.958 68.1056 253.126 67.4336 253.126C66.8363 253.126 66.3043 253.009 65.8376 252.776C65.3803 252.543 65.0163 252.244 64.7456 251.88V253H63.1496V242.64H64.7456V246.434ZM69.4356 249.108C69.4356 248.576 69.3236 248.119 69.0996 247.736C68.8849 247.344 68.5956 247.05 68.2316 246.854C67.8769 246.649 67.4943 246.546 67.0836 246.546C66.6823 246.546 66.2996 246.649 65.9356 246.854C65.5809 247.059 65.2916 247.358 65.0676 247.75C64.8529 248.142 64.7456 248.604 64.7456 249.136C64.7456 249.668 64.8529 250.135 65.0676 250.536C65.2916 250.928 65.5809 251.227 65.9356 251.432C66.2996 251.637 66.6823 251.74 67.0836 251.74C67.4943 251.74 67.8769 251.637 68.2316 251.432C68.5956 251.217 68.8849 250.909 69.0996 250.508C69.3236 250.107 69.4356 249.64 69.4356 249.108ZM72.1059 249.108C72.1059 248.333 72.2646 247.647 72.5819 247.05C72.9086 246.453 73.3472 245.991 73.8979 245.664C74.4579 245.328 75.0739 245.16 75.7459 245.16C76.3526 245.16 76.8799 245.281 77.3279 245.524C77.7852 245.757 78.1492 246.051 78.4199 246.406V245.286H80.0299V253H78.4199V251.852C78.1492 252.216 77.7806 252.519 77.3139 252.762C76.8472 253.005 76.3152 253.126 75.7179 253.126C75.0552 253.126 74.4486 252.958 73.8979 252.622C73.3472 252.277 72.9086 251.801 72.5819 251.194C72.2646 250.578 72.1059 249.883 72.1059 249.108ZM78.4199 249.136C78.4199 248.604 78.3079 248.142 78.0839 247.75C77.8692 247.358 77.5846 247.059 77.2299 246.854C76.8752 246.649 76.4926 246.546 76.0819 246.546C75.6712 246.546 75.2886 246.649 74.9339 246.854C74.5792 247.05 74.2899 247.344 74.0659 247.736C73.8512 248.119 73.7439 248.576 73.7439 249.108C73.7439 249.64 73.8512 250.107 74.0659 250.508C74.2899 250.909 74.5792 251.217 74.9339 251.432C75.2979 251.637 75.6806 251.74 76.0819 251.74C76.4926 251.74 76.8752 251.637 77.2299 251.432C77.5846 251.227 77.8692 250.928 78.0839 250.536C78.3079 250.135 78.4199 249.668 78.4199 249.136ZM85.2309 249.136C85.2309 248.343 85.3896 247.647 85.7069 247.05C86.0336 246.443 86.4816 245.977 87.0509 245.65C87.6202 245.323 88.2736 245.16 89.0109 245.16C89.9442 245.16 90.7142 245.384 91.3209 245.832C91.9369 246.271 92.3522 246.901 92.5669 247.722H90.8449C90.7049 247.339 90.4809 247.041 90.1729 246.826C89.8649 246.611 89.4776 246.504 89.0109 246.504C88.3576 246.504 87.8349 246.737 87.4429 247.204C87.0602 247.661 86.8689 248.305 86.8689 249.136C86.8689 249.967 87.0602 250.615 87.4429 251.082C87.8349 251.549 88.3576 251.782 89.0109 251.782C89.9349 251.782 90.5462 251.376 90.8449 250.564H92.5669C92.3429 251.348 91.9229 251.973 91.3069 252.44C90.6909 252.897 89.9256 253.126 89.0109 253.126C88.2736 253.126 87.6202 252.963 87.0509 252.636C86.4816 252.3 86.0336 251.833 85.7069 251.236C85.3896 250.629 85.2309 249.929 85.2309 249.136ZM93.6254 249.108C93.6254 248.333 93.7841 247.647 94.1014 247.05C94.4281 246.453 94.8668 245.991 95.4174 245.664C95.9774 245.328 96.5934 245.16 97.2654 245.16C97.8721 245.16 98.3994 245.281 98.8474 245.524C99.3048 245.757 99.6688 246.051 99.9394 246.406V245.286H101.549V253H99.9394V251.852C99.6688 252.216 99.3001 252.519 98.8334 252.762C98.3668 253.005 97.8348 253.126 97.2374 253.126C96.5748 253.126 95.9681 252.958 95.4174 252.622C94.8668 252.277 94.4281 251.801 94.1014 251.194C93.7841 250.578 93.6254 249.883 93.6254 249.108ZM99.9394 249.136C99.9394 248.604 99.8274 248.142 99.6034 247.75C99.3888 247.358 99.1041 247.059 98.7494 246.854C98.3948 246.649 98.0121 246.546 97.6014 246.546C97.1908 246.546 96.8081 246.649 96.4534 246.854C96.0988 247.05 95.8094 247.344 95.5854 247.736C95.3708 248.119 95.2634 248.576 95.2634 249.108C95.2634 249.64 95.3708 250.107 95.5854 250.508C95.8094 250.909 96.0988 251.217 96.4534 251.432C96.8174 251.637 97.2001 251.74 97.6014 251.74C98.0121 251.74 98.3948 251.637 98.7494 251.432C99.1041 251.227 99.3888 250.928 99.6034 250.536C99.8274 250.135 99.9394 249.668 99.9394 249.136ZM105.242 246.406C105.475 246.014 105.783 245.711 106.166 245.496C106.558 245.272 107.02 245.16 107.552 245.16V246.812H107.146C106.52 246.812 106.044 246.971 105.718 247.288C105.4 247.605 105.242 248.156 105.242 248.94V253H103.646V245.286H105.242V246.406ZM109.831 244.264C109.541 244.264 109.299 244.166 109.103 243.97C108.907 243.774 108.809 243.531 108.809 243.242C108.809 242.953 108.907 242.71 109.103 242.514C109.299 242.318 109.541 242.22 109.831 242.22C110.111 242.22 110.349 242.318 110.545 242.514C110.741 242.71 110.839 242.953 110.839 243.242C110.839 243.531 110.741 243.774 110.545 243.97C110.349 244.166 110.111 244.264 109.831 244.264ZM110.615 245.286V253H109.019V245.286H110.615ZM117.943 246.42C118.214 246.065 118.582 245.767 119.049 245.524C119.516 245.281 120.043 245.16 120.631 245.16C121.303 245.16 121.914 245.328 122.465 245.664C123.025 245.991 123.464 246.453 123.781 247.05C124.098 247.647 124.257 248.333 124.257 249.108C124.257 249.883 124.098 250.578 123.781 251.194C123.464 251.801 123.025 252.277 122.465 252.622C121.914 252.958 121.303 253.126 120.631 253.126C120.043 253.126 119.52 253.009 119.063 252.776C118.606 252.533 118.232 252.235 117.943 251.88V256.668H116.347V245.286H117.943V246.42ZM122.633 249.108C122.633 248.576 122.521 248.119 122.297 247.736C122.082 247.344 121.793 247.05 121.429 246.854C121.074 246.649 120.692 246.546 120.281 246.546C119.88 246.546 119.497 246.649 119.133 246.854C118.778 247.059 118.489 247.358 118.265 247.75C118.05 248.142 117.943 248.604 117.943 249.136C117.943 249.668 118.05 250.135 118.265 250.536C118.489 250.928 118.778 251.227 119.133 251.432C119.497 251.637 119.88 251.74 120.281 251.74C120.692 251.74 121.074 251.637 121.429 251.432C121.793 251.217 122.082 250.909 122.297 250.508C122.521 250.107 122.633 249.64 122.633 249.108ZM132.905 248.954C132.905 249.243 132.886 249.505 132.849 249.738H126.955C127.002 250.354 127.23 250.849 127.641 251.222C128.052 251.595 128.556 251.782 129.153 251.782C130.012 251.782 130.618 251.423 130.973 250.704H132.695C132.462 251.413 132.037 251.997 131.421 252.454C130.814 252.902 130.058 253.126 129.153 253.126C128.416 253.126 127.753 252.963 127.165 252.636C126.586 252.3 126.129 251.833 125.793 251.236C125.466 250.629 125.303 249.929 125.303 249.136C125.303 248.343 125.462 247.647 125.779 247.05C126.106 246.443 126.558 245.977 127.137 245.65C127.725 245.323 128.397 245.16 129.153 245.16C129.881 245.16 130.53 245.319 131.099 245.636C131.668 245.953 132.112 246.401 132.429 246.98C132.746 247.549 132.905 248.207 132.905 248.954ZM131.239 248.45C131.23 247.862 131.02 247.391 130.609 247.036C130.198 246.681 129.69 246.504 129.083 246.504C128.532 246.504 128.061 246.681 127.669 247.036C127.277 247.381 127.044 247.853 126.969 248.45H131.239ZM136.072 246.406C136.305 246.014 136.613 245.711 136.996 245.496C137.388 245.272 137.85 245.16 138.382 245.16V246.812H137.976C137.35 246.812 136.874 246.971 136.548 247.288C136.23 247.605 136.072 248.156 136.072 248.94V253H134.476V245.286H136.072V246.406ZM140.661 244.264C140.371 244.264 140.129 244.166 139.933 243.97C139.737 243.774 139.639 243.531 139.639 243.242C139.639 242.953 139.737 242.71 139.933 242.514C140.129 242.318 140.371 242.22 140.661 242.22C140.941 242.22 141.179 242.318 141.375 242.514C141.571 242.71 141.669 242.953 141.669 243.242C141.669 243.531 141.571 243.774 141.375 243.97C141.179 244.166 140.941 244.264 140.661 244.264ZM141.445 254.512C141.445 255.268 141.253 255.814 140.871 256.15C140.497 256.495 139.951 256.668 139.233 256.668H138.407V255.324H138.953C139.279 255.324 139.508 255.259 139.639 255.128C139.779 255.007 139.849 254.801 139.849 254.512V245.286H141.445V254.512ZM143.008 249.108C143.008 248.333 143.167 247.647 143.484 247.05C143.811 246.453 144.25 245.991 144.8 245.664C145.36 245.328 145.976 245.16 146.648 245.16C147.255 245.16 147.782 245.281 148.23 245.524C148.688 245.757 149.052 246.051 149.322 246.406V245.286H150.932V253H149.322V251.852C149.052 252.216 148.683 252.519 148.216 252.762C147.75 253.005 147.218 253.126 146.62 253.126C145.958 253.126 145.351 252.958 144.8 252.622C144.25 252.277 143.811 251.801 143.484 251.194C143.167 250.578 143.008 249.883 143.008 249.108ZM149.322 249.136C149.322 248.604 149.21 248.142 148.986 247.75C148.772 247.358 148.487 247.059 148.132 246.854C147.778 246.649 147.395 246.546 146.984 246.546C146.574 246.546 146.191 246.649 145.836 246.854C145.482 247.05 145.192 247.344 144.968 247.736C144.754 248.119 144.646 248.576 144.646 249.108C144.646 249.64 144.754 250.107 144.968 250.508C145.192 250.909 145.482 251.217 145.836 251.432C146.2 251.637 146.583 251.74 146.984 251.74C147.395 251.74 147.778 251.637 148.132 251.432C148.487 251.227 148.772 250.928 148.986 250.536C149.21 250.135 149.322 249.668 149.322 249.136ZM154.625 242.64V253H153.029V242.64H154.625ZM156.188 249.108C156.188 248.333 156.347 247.647 156.664 247.05C156.991 246.453 157.429 245.991 157.98 245.664C158.54 245.328 159.156 245.16 159.828 245.16C160.435 245.16 160.962 245.281 161.41 245.524C161.867 245.757 162.231 246.051 162.502 246.406V245.286H164.112V253H162.502V251.852C162.231 252.216 161.863 252.519 161.396 252.762C160.929 253.005 160.397 253.126 159.8 253.126C159.137 253.126 158.531 252.958 157.98 252.622C157.429 252.277 156.991 251.801 156.664 251.194C156.347 250.578 156.188 249.883 156.188 249.108ZM162.502 249.136C162.502 248.604 162.39 248.142 162.166 247.75C161.951 247.358 161.667 247.059 161.312 246.854C160.957 246.649 160.575 246.546 160.164 246.546C159.753 246.546 159.371 246.649 159.016 246.854C158.661 247.05 158.372 247.344 158.148 247.736C157.933 248.119 157.826 248.576 157.826 249.108C157.826 249.64 157.933 250.107 158.148 250.508C158.372 250.909 158.661 251.217 159.016 251.432C159.38 251.637 159.763 251.74 160.164 251.74C160.575 251.74 160.957 251.637 161.312 251.432C161.667 251.227 161.951 250.928 162.166 250.536C162.39 250.135 162.502 249.668 162.502 249.136ZM170.1 245.16C170.707 245.16 171.248 245.286 171.724 245.538C172.21 245.79 172.588 246.163 172.858 246.658C173.129 247.153 173.264 247.75 173.264 248.45V253H171.682V248.688C171.682 247.997 171.51 247.47 171.164 247.106C170.819 246.733 170.348 246.546 169.75 246.546C169.153 246.546 168.677 246.733 168.322 247.106C167.977 247.47 167.804 247.997 167.804 248.688V253H166.208V245.286H167.804V246.168C168.066 245.851 168.397 245.603 168.798 245.426C169.209 245.249 169.643 245.16 170.1 245.16ZM174.768 249.108C174.768 248.333 174.927 247.647 175.244 247.05C175.571 246.453 176.009 245.991 176.56 245.664C177.12 245.328 177.736 245.16 178.408 245.16C179.015 245.16 179.542 245.281 179.99 245.524C180.447 245.757 180.811 246.051 181.082 246.406V245.286H182.692V253H181.082V251.852C180.811 252.216 180.443 252.519 179.976 252.762C179.509 253.005 178.977 253.126 178.38 253.126C177.717 253.126 177.111 252.958 176.56 252.622C176.009 252.277 175.571 251.801 175.244 251.194C174.927 250.578 174.768 249.883 174.768 249.108ZM181.082 249.136C181.082 248.604 180.97 248.142 180.746 247.75C180.531 247.358 180.247 247.059 179.892 246.854C179.537 246.649 179.155 246.546 178.744 246.546C178.333 246.546 177.951 246.649 177.596 246.854C177.241 247.05 176.952 247.344 176.728 247.736C176.513 248.119 176.406 248.576 176.406 249.108C176.406 249.64 176.513 250.107 176.728 250.508C176.952 250.909 177.241 251.217 177.596 251.432C177.96 251.637 178.343 251.74 178.744 251.74C179.155 251.74 179.537 251.637 179.892 251.432C180.247 251.227 180.531 250.928 180.746 250.536C180.97 250.135 181.082 249.668 181.082 249.136ZM188.68 245.16C189.287 245.16 189.828 245.286 190.304 245.538C190.79 245.79 191.168 246.163 191.438 246.658C191.709 247.153 191.844 247.75 191.844 248.45V253H190.262V248.688C190.262 247.997 190.09 247.47 189.744 247.106C189.399 246.733 188.928 246.546 188.33 246.546C187.733 246.546 187.257 246.733 186.902 247.106C186.557 247.47 186.384 247.997 186.384 248.688V253H184.788V245.286H186.384V246.168C186.646 245.851 186.977 245.603 187.378 245.426C187.789 245.249 188.223 245.16 188.68 245.16ZM199.113 242.64V253H197.517V242.64H199.113ZM200.676 249.108C200.676 248.333 200.835 247.647 201.152 247.05C201.479 246.453 201.918 245.991 202.468 245.664C203.028 245.328 203.644 245.16 204.316 245.16C204.923 245.16 205.45 245.281 205.898 245.524C206.356 245.757 206.72 246.051 206.99 246.406V245.286H208.6V253H206.99V251.852C206.72 252.216 206.351 252.519 205.884 252.762C205.418 253.005 204.886 253.126 204.288 253.126C203.626 253.126 203.019 252.958 202.468 252.622C201.918 252.277 201.479 251.801 201.152 251.194C200.835 250.578 200.676 249.883 200.676 249.108ZM206.99 249.136C206.99 248.604 206.878 248.142 206.654 247.75C206.44 247.358 206.155 247.059 205.8 246.854C205.446 246.649 205.063 246.546 204.652 246.546C204.242 246.546 203.859 246.649 203.504 246.854C203.15 247.05 202.86 247.344 202.636 247.736C202.422 248.119 202.314 248.576 202.314 249.108C202.314 249.64 202.422 250.107 202.636 250.508C202.86 250.909 203.15 251.217 203.504 251.432C203.868 251.637 204.251 251.74 204.652 251.74C205.063 251.74 205.446 251.637 205.8 251.432C206.155 251.227 206.44 250.928 206.654 250.536C206.878 250.135 206.99 249.668 206.99 249.136ZM211.508 244.264C211.219 244.264 210.976 244.166 210.78 243.97C210.584 243.774 210.486 243.531 210.486 243.242C210.486 242.953 210.584 242.71 210.78 242.514C210.976 242.318 211.219 242.22 211.508 242.22C211.788 242.22 212.026 242.318 212.222 242.514C212.418 242.71 212.516 242.953 212.516 243.242C212.516 243.531 212.418 243.774 212.222 243.97C212.026 244.166 211.788 244.264 211.508 244.264ZM212.292 245.286V253H210.696V245.286H212.292ZM218.28 245.16C218.887 245.16 219.428 245.286 219.904 245.538C220.389 245.79 220.767 246.163 221.038 246.658C221.309 247.153 221.444 247.75 221.444 248.45V253H219.862V248.688C219.862 247.997 219.689 247.47 219.344 247.106C218.999 246.733 218.527 246.546 217.93 246.546C217.333 246.546 216.857 246.733 216.502 247.106C216.157 247.47 215.984 247.997 215.984 248.688V253H214.388V245.286H215.984V246.168C216.245 245.851 216.577 245.603 216.978 245.426C217.389 245.249 217.823 245.16 218.28 245.16ZM227.372 245.16C227.978 245.16 228.52 245.286 228.996 245.538C229.481 245.79 229.859 246.163 230.13 246.658C230.4 247.153 230.536 247.75 230.536 248.45V253H228.954V248.688C228.954 247.997 228.781 247.47 228.436 247.106C228.09 246.733 227.619 246.546 227.022 246.546C226.424 246.546 225.948 246.733 225.594 247.106C225.248 247.47 225.076 247.997 225.076 248.688V253H223.48V245.286H225.076V246.168C225.337 245.851 225.668 245.603 226.07 245.426C226.48 245.249 226.914 245.16 227.372 245.16ZM239.515 245.286L234.783 256.626H233.131L234.699 252.874L231.661 245.286H233.439L235.609 251.166L237.863 245.286H239.515ZM240.188 249.108C240.188 248.333 240.347 247.647 240.664 247.05C240.991 246.453 241.429 245.991 241.98 245.664C242.54 245.328 243.156 245.16 243.828 245.16C244.435 245.16 244.962 245.281 245.41 245.524C245.867 245.757 246.231 246.051 246.502 246.406V245.286H248.112V253H246.502V251.852C246.231 252.216 245.863 252.519 245.396 252.762C244.929 253.005 244.397 253.126 243.8 253.126C243.137 253.126 242.531 252.958 241.98 252.622C241.429 252.277 240.991 251.801 240.664 251.194C240.347 250.578 240.188 249.883 240.188 249.108ZM246.502 249.136C246.502 248.604 246.39 248.142 246.166 247.75C245.951 247.358 245.667 247.059 245.312 246.854C244.957 246.649 244.575 246.546 244.164 246.546C243.753 246.546 243.371 246.649 243.016 246.854C242.661 247.05 242.372 247.344 242.148 247.736C241.933 248.119 241.826 248.576 241.826 249.108C241.826 249.64 241.933 250.107 242.148 250.508C242.372 250.909 242.661 251.217 243.016 251.432C243.38 251.637 243.763 251.74 244.164 251.74C244.575 251.74 244.957 251.637 245.312 251.432C245.667 251.227 245.951 250.928 246.166 250.536C246.39 250.135 246.502 249.668 246.502 249.136ZM252.21 243.27L252.028 250.06H250.698L250.516 243.27H252.21ZM251.412 253.098C251.123 253.098 250.88 253 250.684 252.804C250.488 252.608 250.39 252.365 250.39 252.076C250.39 251.787 250.488 251.544 250.684 251.348C250.88 251.152 251.123 251.054 251.412 251.054C251.692 251.054 251.93 251.152 252.126 251.348C252.322 251.544 252.42 251.787 252.42 252.076C252.42 252.365 252.322 252.608 252.126 252.804C251.93 253 251.692 253.098 251.412 253.098Z" fill="#7126B5"/>
<defs>
<clipPath id="clip0_135_5838">
<rect width="276" height="194" fill="white" transform="translate(10)"/>
</clipPath>
</defs>
</svg>
