<svg width="20" height="20" viewBox="0 0 20 20" fill="none" xmlns="http://www.w3.org/2000/svg">
<g clip-path="url(#clip0_162_15104)">
<path fill-rule="evenodd" clip-rule="evenodd" d="M1.66675 2.49935C1.66675 2.03911 2.03984 1.66602 2.50008 1.66602H17.5001C17.9603 1.66602 18.3334 2.03911 18.3334 2.49935V4.65417C18.3334 5.0962 18.1578 5.52012 17.8453 5.83268L12.5001 11.1779V15.8327C12.5001 16.1483 12.3217 16.4369 12.0394 16.578L8.70609 18.2447C8.44777 18.3739 8.14099 18.3601 7.89531 18.2082C7.64963 18.0564 7.50008 17.7882 7.50008 17.4994V11.1779L2.1549 5.83268C1.84234 5.52012 1.66675 5.0962 1.66675 4.65417V2.49935ZM3.33341 3.33268V4.65417L8.92267 10.2434C9.07895 10.3997 9.16675 10.6117 9.16675 10.8327V16.151L10.8334 15.3177V10.8327C10.8334 10.6117 10.9212 10.3997 11.0775 10.2434L16.6667 4.65417V3.33268H3.33341Z" fill="#8A8A8A"/>
</g>
<defs>
<clipPath id="clip0_162_15104">
<rect width="16.6667" height="16.6667" fill="white" transform="translate(1.66675 1.66602)"/>
</clipPath>
</defs>
</svg>
