<svg width="18" height="18" viewBox="0 0 18 18" fill="none" xmlns="http://www.w3.org/2000/svg">
<g clip-path="url(#clip0_11635_766)">
<path fill-rule="evenodd" clip-rule="evenodd" d="M4.2444 0.91107C4.56984 0.585633 5.09748 0.585633 5.42291 0.91107L8.75625 4.2444C9.08169 4.56984 9.08169 5.09748 8.75625 5.42291C8.43081 5.74835 7.90317 5.74835 7.57774 5.42291L5.66699 3.51217V14.8337C5.66699 15.2939 5.2939 15.667 4.83366 15.667C4.37342 15.667 4.00033 15.2939 4.00033 14.8337V3.51217L2.08958 5.42291C1.76414 5.74835 1.23651 5.74835 0.91107 5.42291C0.585633 5.09748 0.585633 4.56984 0.91107 4.2444L4.2444 0.91107ZM13.167 2.33366C13.6272 2.33366 14.0003 2.70675 14.0003 3.16699L14.0003 14.4885L15.9111 12.5777C16.2365 12.2523 16.7641 12.2523 17.0896 12.5777C17.415 12.9032 17.415 13.4308 17.0896 13.7562L13.7562 17.0896C13.6 17.2459 13.388 17.3337 13.167 17.3337C12.946 17.3337 12.734 17.2459 12.5777 17.0896L9.2444 13.7562C8.91897 13.4308 8.91897 12.9032 9.2444 12.5777C9.56984 12.2523 10.0975 12.2523 10.4229 12.5777L12.3337 14.4885L12.3337 3.16699C12.3337 2.70675 12.7068 2.33366 13.167 2.33366Z" fill="#7126B5"/>
</g>
<defs>
<clipPath id="clip0_11635_766">
<rect width="16.6667" height="16.6667" fill="white" transform="translate(0.666992 0.666992)"/>
</clipPath>
</defs>
</svg>
